<svg width="80" height="80" viewBox="0 0 80 80" fill="none" xmlns="http://www.w3.org/2000/svg">
<g clip-path="url(#clip0)">
<path d="M11.3 4.82812L11.1 4.62812L6.7 0.228125C6.4 -0.071875 6.1 -0.171875 5.8 -0.171875C5.5 -0.171875 5.2 -0.071875 4.9 0.228125C4.6 0.428125 4.5 0.728125 4.5 1.12812V71.4281C4.5 75.7281 8 79.2281 12.3 79.2281H67.6C71.9 79.2281 75.4 75.7281 75.4 71.4281V39.5281C75.4 38.8281 74.8 38.2281 74.1 38.2281H62.7H62.4V37.9281V1.12812C62.4 0.628125 62.1 0.128125 61.6 -0.071875C61.4 -0.171875 61.3 -0.171875 61.1 -0.171875C60.8 -0.171875 60.4 -0.071875 60.2 0.228125L55.8 4.62812L55.6 4.82812L55.4 4.62812L51 0.228125C50.8 0.028125 50.4 -0.171875 50.1 -0.171875C49.8 -0.171875 49.4 -0.071875 49.2 0.228125L44.8 4.62812L44.6 4.82812L44.4 4.62812L40 0.228125C39.8 0.028125 39.4 -0.171875 39.1 -0.171875C38.8 -0.171875 38.4 -0.071875 38.2 0.228125L33.8 4.62812L33.6 4.82812L33.4 4.62812L29 0.228125C28.8 0.028125 28.4 -0.171875 28.1 -0.171875C27.8 -0.171875 27.4 -0.071875 27.2 0.228125L22.8 4.62812L22.6 4.82812L22.4 4.62812L18 0.228125C17.8 0.028125 17.4 -0.171875 17.1 -0.171875C16.8 -0.171875 16.4 -0.071875 16.2 0.228125L11.8 4.62812L11.3 4.82812ZM62.4 41.1281V40.8281H62.7H72.7H73V41.1281V71.4281C73 74.3281 70.6 76.7281 67.7 76.7281C64.8 76.7281 62.4 74.3281 62.4 71.4281V41.1281V41.1281ZM16.6 3.12812L16.8 2.92813L17 3.12812L21.5 7.52812C21.7 7.72812 22.1 7.92812 22.4 7.92812C22.7 7.92812 23 7.72812 23.3 7.52812L27.7 3.12812L27.9 2.92813L28.1 3.12812L32.5 7.52812C32.7 7.72812 33.1 7.92812 33.4 7.92812C33.7 7.92812 34.1 7.82812 34.3 7.52812L38.7 3.12812L39 2.82812L39.2 3.02813L43.6 7.52812C43.8 7.72812 44.2 7.92812 44.5 7.92812C44.8 7.92812 45.2 7.82812 45.4 7.52812L49.8 3.12812L50 2.82812L50.2 3.02813L54.7 7.52812C54.9 7.72812 55.3 7.92812 55.6 7.92812C55.9 7.92812 56.3 7.82812 56.5 7.52812L59.4 4.62812L59.9 4.12812V4.82812V39.5281V71.4281C59.9 73.2281 60.5 74.8281 61.6 76.2281L62 76.7281H61.4H12.3C9.4 76.7281 7 74.3281 7 71.4281V4.82812V4.12812L7.5 4.62812L10.4 7.52812C10.6 7.72812 11 7.92812 11.3 7.92812C11.6 7.92812 12 7.82812 12.2 7.52812L16.6 3.12812Z" fill="#4C4C4C"/>
<path d="M39.0992 29.9266C39.0992 27.0266 36.4992 24.6266 33.3992 24.6266C31.6992 24.6266 30.2992 23.4266 30.2992 21.9266C30.2992 20.4266 31.6992 19.2266 33.3992 19.2266C35.0992 19.2266 36.4992 20.4266 36.4992 21.9266C36.4992 22.6266 37.0992 23.2266 37.7992 23.2266C38.4992 23.2266 39.0992 22.6266 39.0992 21.9266C39.0992 19.5266 37.3992 17.4266 34.8992 16.8266H34.6992V16.6266V15.5266C34.6992 14.8266 34.0992 14.2266 33.3992 14.2266C32.6992 14.2266 32.0992 14.8266 32.0992 15.5266V16.6266V16.8266H31.8992C29.3992 17.4266 27.6992 19.5266 27.6992 21.9266C27.6992 24.8266 30.2992 27.2266 33.3992 27.2266C35.0992 27.2266 36.4992 28.4266 36.4992 29.9266C36.4992 31.4266 35.0992 32.6266 33.3992 32.6266C31.6992 32.6266 30.2992 31.4266 30.2992 29.9266C30.2992 29.2266 29.6992 28.6266 28.9992 28.6266C28.2992 28.6266 27.6992 29.2266 27.6992 29.9266C27.6992 32.3266 29.3992 34.4266 31.8992 35.0266H32.0992V35.2266V36.5266C32.0992 37.2266 32.6992 37.8266 33.3992 37.8266C34.0992 37.8266 34.6992 37.2266 34.6992 36.5266V35.2266V35.0266H34.8992C37.3992 34.3266 39.0992 32.2266 39.0992 29.9266Z" fill="#FF671F"/>
<path d="M49.1008 24.625H46.1008C45.4008 24.625 44.8008 25.225 44.8008 25.925C44.8008 26.625 45.4008 27.225 46.1008 27.225H49.1008C49.8008 27.225 50.4008 26.625 50.4008 25.925C50.4008 25.225 49.9008 24.625 49.1008 24.625Z" fill="#FF671F"/>
<path d="M17.6984 27.225H20.6984C21.3984 27.225 21.9984 26.625 21.9984 25.925C21.9984 25.225 21.3984 24.625 20.6984 24.625H17.6984C16.9984 24.625 16.3984 25.225 16.3984 25.925C16.3984 26.625 16.9984 27.225 17.6984 27.225Z" fill="#FF671F"/>
<path d="M49.5016 41.9297H17.4016C16.4016 41.9297 15.6016 42.5297 15.6016 43.2297C15.6016 43.9297 16.4016 44.5297 17.4016 44.5297H49.5016C50.5016 44.5297 51.3016 43.9297 51.3016 43.2297C51.2016 42.5297 50.4016 41.9297 49.5016 41.9297Z" fill="#4C4C4C"/>
<path d="M49.5016 52.3281H17.4016C16.4016 52.3281 15.6016 52.9281 15.6016 53.6281C15.6016 54.3281 16.4016 54.9281 17.4016 54.9281H49.5016C50.5016 54.9281 51.3016 54.3281 51.3016 53.6281C51.2016 52.8281 50.4016 52.3281 49.5016 52.3281Z" fill="#4C4C4C"/>
<path d="M49.5016 62.625H17.4016C16.4016 62.625 15.6016 63.225 15.6016 63.925C15.6016 64.625 16.4016 65.225 17.4016 65.225H49.5016C50.5016 65.225 51.3016 64.625 51.3016 63.925C51.2016 63.225 50.4016 62.625 49.5016 62.625Z" fill="#4C4C4C"/>
</g>
<defs>
<clipPath id="clip0">
<rect width="80" height="80" fill="white"/>
</clipPath>
</defs>
</svg>
