<svg width="16" height="14" viewBox="0 0 16 14" fill="none" xmlns="http://www.w3.org/2000/svg">
<path fill-rule="evenodd" clip-rule="evenodd" d="M4.58301 0.916992H5.33301H10.6663H11.4163L11.4163 1.66699L11.4163 2.91699H14.6663H15.4163V3.66699V13.0003V13.7503H14.6663H1.33303H0.583029L0.583027 13.0003L0.583008 3.66699V2.91699H1.33301H4.58301V1.66699V0.916992ZM9.91634 2.41699V2.91699H6.08301V2.41699H9.91634ZM2.08301 4.41699L2.08303 12.2503H13.9163V4.41699H2.08301ZM7.99968 5.33366C7.44739 5.33366 6.99968 5.78137 6.99968 6.33366C6.99968 6.88594 7.44739 7.33366 7.99968 7.33366H8.00634C8.55863 7.33366 9.00634 6.88594 9.00634 6.33366C9.00634 5.78137 8.55863 5.33366 8.00634 5.33366H7.99968Z" fill="#FF671F"/>
</svg>
