<svg width="23" height="23" fill="none" xmlns="http://www.w3.org/2000/svg"><path fill-rule="evenodd" clip-rule="evenodd" d="M0 1.75h3.39c.234 1.108.597 2.705.995 4.42a1031.083 1031.083 0 002.061 8.685l.157.648.041.172.011.045.003.011v.003l.73-.176-.73.177.14.573h.59v-.75.75h12.885l.146-.562-.727-.188.727.188v-.002l.001-.004.004-.015.016-.061.06-.233a452.38 452.38 0 00.905-3.583c.519-2.087 1.101-4.499 1.332-5.708l.17-.89H5.712A180.997 180.997 0 014.735.853L4.615.25H0v1.5zm7.983 13.058h-.005l-.074-.305A1429.431 1429.431 0 016.06 6.75h15.018a195.99 195.99 0 01-1.129 4.736 508.422 508.422 0 01-.838 3.322H7.983zM8 21.5a.5.5 0 100-1 .5.5 0 000 1zm2-.5a2 2 0 11-4 0 2 2 0 014 0zm10 .5a.5.5 0 100-1 .5.5 0 000 1zm2-.5a2 2 0 11-4 0 2 2 0 014 0z" fill="#FF671F"/></svg>