<svg width="24" height="25" viewBox="0 0 24 25" fill="none" xmlns="http://www.w3.org/2000/svg">
<g clip-path="url(#clip0)">
<path d="M11.4999 23.9444V22.9568C11.4999 22.4329 11.2892 21.9304 10.9142 21.56C10.5391 21.1896 10.0304 20.9814 9.49994 20.9814H5.49994C4.96951 20.9814 4.4608 21.1896 4.08573 21.56C3.71065 21.9304 3.49994 22.4329 3.49994 22.9568V23.9444" stroke="white" stroke-width="1.5" stroke-linecap="square"/>
<path d="M7.50006 19.0063C8.60463 19.0063 9.50006 18.1219 9.50006 17.031C9.50006 15.94 8.60463 15.0557 7.50006 15.0557C6.39549 15.0557 5.50006 15.94 5.50006 17.031C5.50006 18.1219 6.39549 19.0063 7.50006 19.0063Z" stroke="white" stroke-width="1.5" stroke-linecap="square"/>
<path d="M16 23.9447V22.957C15.9997 22.5193 15.8522 22.0942 15.5807 21.7483C15.3092 21.4024 14.9291 21.1553 14.5 21.0459" stroke="white" stroke-width="1.5" stroke-linecap="square"/>
<path d="M12.4999 15.1201C12.9301 15.2289 13.3115 15.476 13.5838 15.8225C13.8561 16.169 14.0039 16.5951 14.0039 17.0337C14.0039 17.4723 13.8561 17.8984 13.5838 18.2449C13.3115 18.5914 12.9301 18.8385 12.4999 18.9473" stroke="white" stroke-width="1.5" stroke-linecap="square"/>
<path d="M20.4999 23.9447V22.957C20.4996 22.5193 20.3521 22.0942 20.0806 21.7483C19.8091 21.4024 19.429 21.1553 18.9999 21.0459" stroke="white" stroke-width="1.5" stroke-linecap="square"/>
<path d="M16.9999 15.1201C17.4301 15.2289 17.8115 15.476 18.0838 15.8225C18.3561 16.169 18.5039 16.5951 18.5039 17.0337C18.5039 17.4723 18.3561 17.8984 18.0838 18.2449C17.8115 18.5914 17.4301 18.8385 16.9999 18.9473" stroke="white" stroke-width="1.5" stroke-linecap="square"/>
<path d="M18.1666 12.3459V11.0382C18.1666 10.4261 17.8761 9.83915 17.359 9.40638C16.8418 8.9736 16.1404 8.73047 15.4091 8.73047H8.59089C7.85953 8.73047 7.15813 8.9736 6.64099 9.40638C6.12384 9.83915 5.83331 10.4261 5.83331 11.0382V12.3459" stroke="white" stroke-width="1.5"/>
<path d="M12.1945 6.375C13.5905 6.375 14.7222 5.25571 14.7222 3.875C14.7222 2.49429 13.5905 1.375 12.1945 1.375C10.7984 1.375 9.66669 2.49429 9.66669 3.875C9.66669 5.25571 10.7984 6.375 12.1945 6.375Z" stroke="white" stroke-width="1.5"/>
</g>
<defs>
<clipPath id="clip0">
<rect width="24" height="24" fill="white" transform="translate(0 0.5)"/>
</clipPath>
</defs>
</svg>
