<svg width="24" height="24" viewBox="0 0 24 24" fill="none" xmlns="http://www.w3.org/2000/svg">
<path fill-rule="evenodd" clip-rule="evenodd" d="M8.00134 1.25L7.25 1.24866V2V3V3.25H6H4H3.25V4V6V20V22V22.75H4H6H18H20H20.75V22V20V6V4V3.25H20H18H16.75V3V2.00168V1.25293L16.0013 1.25168L15.0013 1.25H15H9C8.97448 1.25 8.94904 1.25055 8.9237 1.25164L8.00134 1.25ZM15.25 4.75V3.25V3V2.75042L15 2.75H14.9994H9C8.99478 2.75 8.98969 2.75015 8.98471 2.75043L8.96248 2.75171L8.94021 2.75167L8.75 2.75134V3V3.25V4.75V5V5.25H9H15H15.25V5V4.75ZM7.25 4.75V5V6V6.75H8H9H15H16H16.75V6V5V4.75H18H19.25V6V20V21.25H18H6H4.75V20V6V4.75H6H7.25ZM16.9374 11.4515H7.06641V9.95147H16.9374V11.4515ZM16.9374 14.7418H7.06641V13.2418H16.9374V14.7418ZM7.06641 18.0322H16.9374V16.5322H7.06641V18.0322Z" fill="#292929"/>
</svg>
