<svg width="24" height="24" viewBox="0 0 24 24" fill="none" xmlns="http://www.w3.org/2000/svg">
<path fill-rule="evenodd" clip-rule="evenodd" d="M18.3998 3.69683C18.15 3.69683 17.9026 3.74604 17.6717 3.84165C17.4409 3.93727 17.2312 4.07741 17.0545 4.25408L4.82555 16.483L3.81655 20.1827L7.51622 19.1737L19.7452 6.94475C19.9218 6.76807 20.062 6.55833 20.1576 6.3275C20.2532 6.09667 20.3024 5.84927 20.3024 5.59941C20.3024 5.34956 20.2532 5.10216 20.1576 4.87133C20.062 4.64049 19.9218 4.43075 19.7452 4.25408C19.5685 4.07741 19.3587 3.93727 19.1279 3.84165C18.8971 3.74604 18.6497 3.69683 18.3998 3.69683ZM17.1463 2.57308C17.5437 2.40846 17.9697 2.32373 18.3998 2.32373C18.83 2.32373 19.256 2.40846 19.6534 2.57308C20.0508 2.7377 20.4119 2.97898 20.7161 3.28316C21.0203 3.58733 21.2615 3.94844 21.4262 4.34586C21.5908 4.74329 21.6755 5.16925 21.6755 5.59941C21.6755 6.02958 21.5908 6.45554 21.4262 6.85296C21.2615 7.25039 21.0203 7.6115 20.7161 7.91567L8.35822 20.2735L8.2293 20.4025L8.0534 20.4504L3.01871 21.8235L1.85959 22.1397L2.17571 20.9805L3.54881 15.9458L3.59678 15.7699L3.7257 15.641L16.0836 3.28316C16.3877 2.97898 16.7489 2.7377 17.1463 2.57308Z" fill="#FF671F"/>
</svg>
