<svg width="24" height="24" viewBox="0 0 24 24" fill="none" xmlns="http://www.w3.org/2000/svg">
<circle cx="12" cy="12" r="12" fill="#0077B5"/>
<path fill-rule="evenodd" clip-rule="evenodd" d="M8.86485 6.17111C8.86485 6.91817 8.29603 7.52274 7.40649 7.52274C6.55161 7.52274 5.98279 6.91817 6.0004 6.17111C5.98279 5.38775 6.5516 4.80078 7.42353 4.80078C8.29602 4.80078 8.8478 5.38775 8.86485 6.17111ZM6.07192 17.2922V8.59051H8.77627V17.2917H6.07192V17.2922Z" fill="white"/>
<path fill-rule="evenodd" clip-rule="evenodd" d="M10.9446 11.3676C10.9446 10.2823 10.9088 9.35698 10.873 8.59177H13.222L13.3469 9.78387H13.4003C13.7562 9.23211 14.6457 8.39648 16.087 8.39648C17.8661 8.39648 19.2007 9.57098 19.2007 12.1323V17.2935H16.4963V12.4712C16.4963 11.3495 16.1052 10.5848 15.1265 10.5848C14.3789 10.5848 13.9344 11.1008 13.7568 11.5987C13.6852 11.7769 13.65 12.0256 13.65 12.2753V17.2935H10.9457V11.3676H10.9446Z" fill="white"/>
</svg>
