<svg width="80" height="80" fill="none" xmlns="http://www.w3.org/2000/svg"><path d="M79.8 65.3V14.7v-.4c0-.1-.1-.1-.1-.2 0 0 0-.1-.1-.1 0-.1-.1-.1-.2-.2-.1 0-.2-.1-.2-.1L40.4.3.3 14.4V65.3c0 .5.3.9.7 1l38.6 13.3c.2.1.5.1.7 0h.1L79 66.4c.5-.2.8-.6.8-1.1zM5.3 14.4L40 2.5h.1L56 8 20.7 20.2h-.1L4.7 14.7l.6-.3zm33.6 62.8l-.3-.2L2.4 64.6V16.2l36.5 12.6v48.4zM40 26.9l-16-5.5.7-.2 34.7-12h.1l15.9 5.5L40 26.9zm37.6 37.7l-.2.1-36.3 12.5V28.8l.2-.1 36.3-12.5v48.4zM.4 14.1l20-7.2L1 13.6c-.1 0-.2.1-.3.1l-.1.1c-.1.1-.1.2-.2.3.1-.1 0 0 0 0z" fill="#4D4D4D"/><path fill-rule="evenodd" clip-rule="evenodd" d="M28 59.1c4.2 0 7.7-3.5 7.7-7.8 0-.5-.3-.9-.7-1l-5.2-1.8c-2.4-.8-5-.5-7 1-.6.4-1.1.9-1.5 1.5l-.3.4-.1-.4c-1.5-4-4.6-7.1-8.7-8.5L7 40.7c-.3-.1-.7-.1-1 .1-.3.2-.5.5-.5.9 0 6 3.8 11.4 9.6 13.4l4.4 1.5v13.8l2.2.8-.1-13.9 3.7 1.3c1 .4 1.9.5 2.7.5zm-12.3-6.2c-4.2-1.4-7.2-5-7.9-9.4l-.1-.4 3.6 1.3c4.2 1.4 7.2 5 7.9 9.4l.1.4-3.6-1.3zm5.9 2v-.2c.3-1.6 1.3-3 2.7-3.8 1.4-.8 3.1-1 4.6-.5l4.4 1.5v.2c-.3 1.6-1.3 3-2.7 3.8-.9.5-1.8.8-2.8.8-.6 0-1.2-.1-1.8-.3l-4.4-1.5z" fill="#FF671F"/><path d="M52.5 32.4c.6 1.9 2.7 2.9 4.6 2.2l7-2.4c1.9-.7 2.9-2.7 2.2-4.6-.6-1.9-2.7-2.9-4.6-2.2l-6.9 2.4c-2 .7-3 2.8-2.3 4.6zm2.9-2.5l7-2.4c.4-.2.9-.1 1.3.2.4.3.6.7.6 1.2 0 .6-.4 1.2-1 1.4l-7 2.4c-.2.1-.3.1-.5.1-.3 0-.6-.1-.8-.3-.4-.3-.6-.7-.6-1.2 0-.6.4-1.2 1-1.4z" fill="#4D4D4D"/></svg>