<svg width="24" height="24" viewBox="0 0 24 24" fill="none" xmlns="http://www.w3.org/2000/svg">
<circle cx="12" cy="12" r="12" fill="#BD081C"/>
<path fill-rule="evenodd" clip-rule="evenodd" d="M12.511 4.80078C8.58102 4.80078 6.59961 7.61833 6.59961 9.96786C6.59961 11.3904 7.13828 12.6563 8.29347 13.1274C8.48292 13.2048 8.65258 13.1301 8.70748 12.9204C8.74573 12.7751 8.83619 12.4087 8.87624 12.2562C8.93159 12.0487 8.90999 11.9763 8.75698 11.7954C8.42397 11.4025 8.21112 10.894 8.21112 10.1735C8.21112 8.08274 9.77537 6.21158 12.2838 6.21158C14.505 6.21158 15.7255 7.56927 15.7255 9.38148C15.7255 11.7666 14.6697 13.7795 13.1032 13.7795C12.2379 13.7795 11.5903 13.0635 11.7977 12.186C12.0461 11.1384 12.5281 10.007 12.5281 9.25099C12.5281 8.57417 12.1645 8.0094 11.4125 8.0094C10.5278 8.0094 9.81722 8.92427 9.81722 10.1501C9.81722 10.9309 10.0809 11.4592 10.0809 11.4592C10.0809 11.4592 9.1755 15.2947 9.01709 15.9666C8.70118 17.3045 8.96984 18.9443 8.99234 19.1099C9.00584 19.208 9.13185 19.2314 9.189 19.1567C9.27045 19.0505 10.3239 17.7495 10.6821 16.4499C10.7834 16.0822 11.264 14.1764 11.264 14.1764C11.5511 14.7245 12.3913 15.2074 13.2846 15.2074C15.9437 15.2074 17.7474 12.7832 17.7474 9.5381C17.7474 7.08551 15.6697 4.80078 12.511 4.80078Z" fill="white"/>
</svg>
