<svg width="20" height="24" fill="none" xmlns="http://www.w3.org/2000/svg"><path clip-rule="evenodd" d="M6.417 2.25c0-.184.149-.333.333-.333h6.5c.184 0 .333.149.333.333v2.167c0 .184-.149.333-.333.333h-6.5a.333.333 0 01-.333-.333V2.25zm-1.5.333V2.25c0-1.012.82-1.833 1.833-1.833h6.5c1.013 0 1.833.82 1.833 1.833v.333H16.5A2.916 2.916 0 0119.417 5.5v15.167a2.916 2.916 0 01-2.917 2.916h-13a2.917 2.917 0 01-2.917-2.916V5.5A2.917 2.917 0 013.5 2.583h1.417zm0 1.5H3.5A1.417 1.417 0 002.083 5.5v15.167A1.417 1.417 0 003.5 22.083h13a1.417 1.417 0 001.417-1.416V5.5A1.417 1.417 0 0016.5 4.083h-1.417v.334c0 1.012-.82 1.833-1.833 1.833h-6.5a1.833 1.833 0 01-1.833-1.833v-.334zm1.139 11.972A2.75 2.75 0 018 15.25h4A2.75 2.75 0 0114.75 18v1a.75.75 0 11-1.5 0v-1A1.25 1.25 0 0012 16.75H8A1.25 1.25 0 006.75 18v1a.75.75 0 01-1.5 0v-1c0-.73.29-1.429.806-1.945zM8.75 11.5a1.25 1.25 0 112.5 0 1.25 1.25 0 01-2.5 0zM10 8.75a2.75 2.75 0 100 5.5 2.75 2.75 0 000-5.5z"/></svg>