<svg width="24" height="25" viewBox="0 0 24 25" fill="none" xmlns="http://www.w3.org/2000/svg">
<path d="M16.3333 3.83337H18.5C19.0746 3.83337 19.6257 4.06165 20.032 4.46798C20.4384 4.8743 20.6666 5.4254 20.6666 6.00004V21.1667C20.6666 21.7413 20.4384 22.2924 20.032 22.6988C19.6257 23.1051 19.0746 23.3334 18.5 23.3334H5.49998C4.92534 23.3334 4.37424 23.1051 3.96791 22.6988C3.56159 22.2924 3.33331 21.7413 3.33331 21.1667V6.00004C3.33331 5.4254 3.56159 4.8743 3.96791 4.46798C4.37424 4.06165 4.92534 3.83337 5.49998 3.83337H7.66665" stroke="white" stroke-width="1.5" stroke-linecap="square"/>
<path d="M15.25 1.66663H8.75002C8.15171 1.66663 7.66669 2.15165 7.66669 2.74996V4.91663C7.66669 5.51493 8.15171 5.99996 8.75002 5.99996H15.25C15.8483 5.99996 16.3334 5.51493 16.3334 4.91663V2.74996C16.3334 2.15165 15.8483 1.66663 15.25 1.66663Z" stroke="white" stroke-width="1.5" stroke-linecap="square"/>
<path d="M16 19.5V18.5C16 17.9696 15.7893 17.4609 15.4142 17.0858C15.0391 16.7107 14.5304 16.5 14 16.5H10C9.46957 16.5 8.96086 16.7107 8.58579 17.0858C8.21071 17.4609 8 17.9696 8 18.5V19.5" stroke="white" stroke-width="1.5" stroke-linecap="round" stroke-linejoin="round"/>
<path d="M12 14C13.1046 14 14 13.1046 14 12C14 10.8954 13.1046 10 12 10C10.8954 10 10 10.8954 10 12C10 13.1046 10.8954 14 12 14Z" stroke="white" stroke-width="1.5" stroke-linecap="round" stroke-linejoin="round"/>
</svg>
