<svg width="24" height="25" viewBox="0 0 24 25" fill="none" xmlns="http://www.w3.org/2000/svg">
<path d="M16.3333 3.83334H18.5C19.0746 3.83334 19.6257 4.06162 20.032 4.46795C20.4384 4.87427 20.6666 5.42537 20.6666 6.00001V21.1667C20.6666 21.7413 20.4384 22.2924 20.032 22.6987C19.6257 23.1051 19.0746 23.3333 18.5 23.3333H5.49998C4.92534 23.3333 4.37424 23.1051 3.96791 22.6987C3.56159 22.2924 3.33331 21.7413 3.33331 21.1667V6.00001C3.33331 5.42537 3.56159 4.87427 3.96791 4.46795C4.37424 4.06162 4.92534 3.83334 5.49998 3.83334H7.66665" stroke="white" stroke-width="1.5" stroke-linecap="square"/>
<path d="M15.25 1.66666H8.75002C8.15171 1.66666 7.66669 2.15168 7.66669 2.74999V4.91666C7.66669 5.51496 8.15171 5.99999 8.75002 5.99999H15.25C15.8483 5.99999 16.3334 5.51496 16.3334 4.91666V2.74999C16.3334 2.15168 15.8483 1.66666 15.25 1.66666Z" stroke="white" stroke-width="1.5" stroke-linecap="square"/>
<path d="M15.3334 12L10.75 16.5833L8.66669 14.5" stroke="white" stroke-width="1.5" stroke-linecap="round" stroke-linejoin="round"/>
</svg>
