<svg width="80" height="80" fill="none" xmlns="http://www.w3.org/2000/svg"><path fill-rule="evenodd" clip-rule="evenodd" d="M75.394 8.137L67.574.318a1.13 1.13 0 00-1.543 0L22.106 44.243l-.662-.662a3.795 3.795 0 00-5.357 0L5.394 54.28a3.773 3.773 0 000 5.35L24.65 78.893a3.788 3.788 0 005.35 0l10.7-10.7a3.788 3.788 0 000-5.35l-1.656-1.662 2.912-1.069a1.102 1.102 0 00.719-.987l.144-4.082 3.837-1.412a1.09 1.09 0 00.713-.988l.143-4.08 3.838-1.407a1.08 1.08 0 00.712-.988l.144-4.08 3.838-1.407a1.095 1.095 0 00.712-.988l.144-4.08 3.837-1.407a1.095 1.095 0 00.713-.994l.144-4.081 3.837-1.406a1.102 1.102 0 00.719-.988l.144-4.087 3.83-1.407a1.096 1.096 0 00.72-.987l.143-4.081 3.838-1.413a1.102 1.102 0 00.719-.987l.175-4.825a1.113 1.113 0 00-.325-.813zm-2.013 4.825l-3.837 1.413a1.08 1.08 0 00-.713.987l-.15 4.081-3.831 1.407a1.102 1.102 0 00-.719.987l-.144 4.088-3.837 1.406a1.096 1.096 0 00-.713.987l-.143 4.088-3.838 1.406a1.095 1.095 0 00-.719.988l-.137 4.08-3.838 1.407a1.089 1.089 0 00-.712.988l-.144 4.08-3.837 1.407a1.102 1.102 0 00-.72.988l-.143 4.08-3.831 1.413a1.095 1.095 0 00-.719.988l-.144 4.081-3.175 1.163L23.65 45.793l43.156-43.15 6.706 6.707-.13 3.612zM14.662 59.15l-2.193-2.194 6.3-6.3 14.856 14.862-6.3 6.3-2.194-2.193L14.662 59.15zm24.958 6.365c0-.422-.166-.828-.464-1.128L19.894 45.131a1.625 1.625 0 00-2.257 0l-10.7 10.7a1.592 1.592 0 000 2.256l4.32 4.319 10.618 10.619 4.319 4.318a1.634 1.634 0 002.262 0l10.7-10.7c.297-.3.464-.705.464-1.128zm-15.958 5.728l2.888 2.894a1.102 1.102 0 001.55 0l7.844-7.85a1.08 1.08 0 000-1.544L19.537 48.337a1.094 1.094 0 00-1.543 0l-7.85 7.844a1.101 1.101 0 000 1.55l2.893 2.894 10.625 10.618z" fill="#4D4D4D"/><path fill-rule="evenodd" clip-rule="evenodd" d="M14.662 59.15l-2.194-2.194 6.3-6.3L33.624 65.52l-6.3 6.3-2.193-2.194L14.66 59.15zm9 12.094l2.887 2.893a1.102 1.102 0 001.55 0l7.844-7.85a1.085 1.085 0 000-1.543L19.537 48.337a1.094 1.094 0 00-1.544 0l-7.85 7.844a1.101 1.101 0 000 1.55l2.894 2.894 10.625 10.619z" fill="#FF671F"/></svg>