<svg width="20" height="20" viewBox="0 0 20 20" fill="none" xmlns="http://www.w3.org/2000/svg">
<path fill-rule="evenodd" clip-rule="evenodd" d="M1.75 8.5C1.75 4.77208 4.77208 1.75 8.5 1.75C12.2279 1.75 15.25 4.77208 15.25 8.5C15.25 12.2279 12.2279 15.25 8.5 15.25C4.77208 15.25 1.75 12.2279 1.75 8.5ZM8.5 0.25C3.94365 0.25 0.25 3.94365 0.25 8.5C0.25 13.0563 3.94365 16.75 8.5 16.75C10.5081 16.75 12.3487 16.0325 13.7793 14.84L18.4697 19.5303L19.5303 18.4697L14.84 13.7793C16.0325 12.3487 16.75 10.5081 16.75 8.5C16.75 3.94365 13.0563 0.25 8.5 0.25Z" fill="#292929"/>
</svg>
