<svg width="54" height="76" fill="none" xmlns="http://www.w3.org/2000/svg"><path d="M27 45.965A19.313 19.313 0 107.687 26.652 19.332 19.332 0 0027 45.965zm0-36.432A17.125 17.125 0 119.875 26.658 17.141 17.141 0 0127 9.533z" fill="#4D4D4D"/><path d="M20.492 29.578l-2.415 7.243a1.093 1.093 0 001.645 1.256l7.277-4.852 7.278 4.852a1.093 1.093 0 001.644-1.256l-2.414-7.243 4.778-4.778a1.094 1.094 0 00-.773-1.867h-7.097l-2.378-7.137a1.094 1.094 0 00-2.075 0l-2.38 7.137h-7.095a1.092 1.092 0 00-.773 1.867l4.778 4.778zm3.882-4.457a1.094 1.094 0 001.038-.75l1.587-4.77 1.59 4.774a1.093 1.093 0 001.038.75h5.247l-3.39 3.388a1.093 1.093 0 00-.263 1.119l1.62 4.86L27.606 31a1.094 1.094 0 00-1.214 0l-5.232 3.488 1.62-4.861a1.094 1.094 0 00-.263-1.119l-3.39-3.389 5.247.002z" fill="#FF671F"/><path d="M53.603 66.461L43.46 45.855a3.48 3.48 0 002.804-3.408v-2.062a1.282 1.282 0 01.794-1.188l1.908-.79a3.473 3.473 0 001.878-4.54l-.783-1.9a1.283 1.283 0 01.278-1.403l1.453-1.452a3.48 3.48 0 000-4.913l-1.46-1.46a1.283 1.283 0 01-.28-1.402l.79-1.908a3.474 3.474 0 00-1.882-4.538l-1.9-.786a1.283 1.283 0 01-.794-1.187v-2.055a3.478 3.478 0 00-3.474-3.474h-2.067a1.281 1.281 0 01-1.188-.794l-.789-1.908a3.472 3.472 0 00-4.542-1.875l-1.895.784a1.286 1.286 0 01-1.403-.279l-1.454-1.452a3.478 3.478 0 00-4.912 0l-1.46 1.46a1.282 1.282 0 01-1.402.28l-1.909-.793a3.475 3.475 0 00-4.538 1.882l-.785 1.9a1.281 1.281 0 01-1.187.795h-2.055a3.478 3.478 0 00-3.474 3.474v2.062a1.282 1.282 0 01-.794 1.188l-1.907.791a3.473 3.473 0 00-1.875 4.54l.786 1.897a1.283 1.283 0 01-.278 1.402l-1.453 1.452a3.479 3.479 0 000 4.914l1.46 1.46a1.283 1.283 0 01.279 1.401l-.79 1.909a3.473 3.473 0 001.882 4.538l1.894.788a1.283 1.283 0 01.794 1.187v2.054a3.479 3.479 0 002.804 3.408L.394 66.46a1.094 1.094 0 001.333 1.518l9.75-3.318 3.318 9.75a1.094 1.094 0 00.965.74h.07a1.095 1.095 0 00.982-.61l10.187-20.694 10.188 20.695a1.095 1.095 0 00.98.61h.072a1.095 1.095 0 00.965-.739l3.317-9.75 9.75 3.318a1.093 1.093 0 001.334-1.518h-.002zM9.92 42.447v-2.053a3.463 3.463 0 00-2.145-3.21l-1.898-.785a1.286 1.286 0 01-.697-1.681l.79-1.906a3.464 3.464 0 00-.754-3.785l-1.46-1.465a1.288 1.288 0 010-1.82l1.452-1.452a3.462 3.462 0 00.75-3.786l-.784-1.895a1.286 1.286 0 01.696-1.681l1.907-.79a3.465 3.465 0 002.143-3.21v-2.063a1.289 1.289 0 011.287-1.286h2.054a3.464 3.464 0 003.21-2.146l.785-1.898a1.287 1.287 0 011.68-.699l1.909.789a3.466 3.466 0 003.784-.75l1.46-1.46a1.319 1.319 0 011.82 0l1.452 1.451a3.463 3.463 0 003.787.753l1.897-.787a1.284 1.284 0 011.681.697l.791 1.906a3.463 3.463 0 003.209 2.144h2.066a1.289 1.289 0 011.286 1.286v2.054a3.463 3.463 0 002.145 3.206l1.901.787a1.286 1.286 0 01.697 1.68l-.792 1.908a3.465 3.465 0 00.753 3.785l1.46 1.46a1.288 1.288 0 010 1.82l-1.452 1.452a3.461 3.461 0 00-.75 3.787l.787 1.897a1.285 1.285 0 01-.696 1.681l-1.907.79a3.467 3.467 0 00-2.144 3.21v2.063a1.288 1.288 0 01-1.286 1.286h-2.057a3.464 3.464 0 00-3.21 2.146l-.785 1.898a1.287 1.287 0 01-1.68.699l-1.908-.787a3.464 3.464 0 00-3.785.75l-1.46 1.46a1.318 1.318 0 01-1.82 0l-1.452-1.452a3.464 3.464 0 00-3.787-.75l-1.897.787a1.285 1.285 0 01-1.68-.695l-.792-1.912a3.464 3.464 0 00-3.209-2.144H11.21a1.289 1.289 0 01-1.29-1.284zm6.096 28.76l-2.819-8.285a1.093 1.093 0 00-1.388-.683l-8.285 2.819 9.42-19.137h.328a1.283 1.283 0 011.188.794l.79 1.91a3.475 3.475 0 004.538 1.875l1.899-.786a1.285 1.285 0 011.403.279l1.452 1.452c.261.254.562.465.89.625l-9.416 19.136zm26.17-8.968a1.094 1.094 0 00-1.388.683l-2.818 8.284-9.418-19.134c.328-.16.63-.37.89-.625l1.461-1.46a1.281 1.281 0 011.402-.28l1.908.79a3.475 3.475 0 004.539-1.882l.785-1.897a1.282 1.282 0 011.187-.795h.318L50.47 65.06l-8.284-2.821z" fill="#4D4D4D"/></svg>