<svg width="24" height="27" viewBox="0 0 24 27" fill="none" xmlns="http://www.w3.org/2000/svg">
<path d="M20 24.5C21.1046 24.5 22 23.6046 22 22.5C22 21.3954 21.1046 20.5 20 20.5C18.8954 20.5 18 21.3954 18 22.5C18 23.6046 18.8954 24.5 20 24.5Z" stroke="white" stroke-width="1.5" stroke-linecap="round" stroke-linejoin="round"/>
<path d="M4 24.5C2.89543 24.5 2 23.6046 2 22.5C2 21.3954 2.89543 20.5 4 20.5C5.10457 20.5 6 21.3954 6 22.5C6 23.6046 5.10457 24.5 4 24.5Z" stroke="white" stroke-width="1.5" stroke-linecap="round" stroke-linejoin="round"/>
<path d="M12 24.5C10.8954 24.5 10 23.6046 10 22.5C10 21.3954 10.8954 20.5 12 20.5C13.1046 20.5 14 21.3954 14 22.5C14 23.6046 13.1046 24.5 12 24.5Z" stroke="white" stroke-width="1.5" stroke-linecap="round" stroke-linejoin="round"/>
<path d="M17.9999 17.1504V15.6504C17.9999 14.8547 17.6839 14.0917 17.1213 13.5291C16.5586 12.9665 15.7956 12.6504 14.9999 12.6504H8.99994C8.20429 12.6504 7.44123 12.9665 6.87862 13.5291C6.31601 14.0917 5.99994 14.8547 5.99994 15.6504V17.1504" stroke="white" stroke-width="1.5"/>
<path d="M12 9.5C13.6569 9.5 15 8.15685 15 6.5C15 4.84315 13.6569 3.5 12 3.5C10.3431 3.5 9 4.84315 9 6.5C9 8.15685 10.3431 9.5 12 9.5Z" stroke="white" stroke-width="1.5"/>
</svg>
