<svg width="18" height="20" viewBox="0 0 18 20" fill="none" xmlns="http://www.w3.org/2000/svg">
<path fill-rule="evenodd" clip-rule="evenodd" d="M5.75 5C5.75 3.20507 7.20507 1.75 9 1.75C10.7949 1.75 12.25 3.20507 12.25 5C12.25 6.79493 10.7949 8.25 9 8.25C7.20507 8.25 5.75 6.79493 5.75 5ZM9 0.25C6.37665 0.25 4.25 2.37665 4.25 5C4.25 7.62335 6.37665 9.75 9 9.75C11.6234 9.75 13.75 7.62335 13.75 5C13.75 2.37665 11.6234 0.25 9 0.25ZM5 12.25C3.74022 12.25 2.53204 12.7504 1.64124 13.6412C0.750445 14.532 0.25 15.7402 0.25 17V19V19.75H1H17H17.75V19V17C17.75 15.7402 17.2496 14.532 16.3588 13.6412C15.468 12.7504 14.2598 12.25 13 12.25H5ZM2.7019 14.7019C3.3114 14.0924 4.13805 13.75 5 13.75H13C13.862 13.75 14.6886 14.0924 15.2981 14.7019C15.9076 15.3114 16.25 16.138 16.25 17V18.25H1.75V17C1.75 16.138 2.09241 15.3114 2.7019 14.7019Z" fill="white"/>
</svg>
