<svg width="80" height="80" viewBox="0 0 80 80" fill="none" xmlns="http://www.w3.org/2000/svg">
<path fill-rule="evenodd" clip-rule="evenodd" d="M71.6992 14.1273C71.6992 13.5273 71.1992 13.0273 70.5992 13.0273H62.4992H61.8303L62.5634 15.2273H63.3992H69.2992H69.5992V15.5273V28.8273V29.1273H69.2992H67.5992H64.7992H60.9992H58.1992H18.3992H10.6992H9.29922C7.49922 29.1273 5.69922 28.4273 4.39922 27.0273C4.29922 26.9273 3.09922 25.4273 2.79922 24.4273C2.49922 23.7273 2.39922 22.9273 2.39922 22.2273C2.39922 18.3273 5.49922 15.2273 9.29922 15.2273H16.4992H17.8663L21.2141 13.0273H20.4992H9.29922C4.29922 13.0273 0.199219 17.1273 0.199219 22.1273V70.1273C0.199219 75.1273 4.29922 79.2273 9.29922 79.2273H70.5992C71.1992 79.2273 71.6992 78.7273 71.6992 78.1273V62.1273V61.8273H71.9992H74.6992C77.4992 61.8273 79.7992 59.5273 79.7992 56.7273V40.7273C79.7992 37.9273 77.4992 35.6273 74.6992 35.6273H71.9992H71.6992V35.5273V14.1273ZM69.5992 76.8273V62.1273H69.6992V62.0273H69.3992H54.6992C49.6992 62.0273 45.5992 57.9273 45.5992 52.9273C45.5992 47.9273 49.6992 43.8273 54.6992 43.8273H69.0992H69.3992V43.5273V31.5273V31.1273H69.0992H10.8992H9.19922C6.40121 31.1273 4.31835 30.0465 2.39922 28.1273V28.7273V70.2273C2.39922 74.0273 5.49922 77.1273 9.29922 77.1273H69.2992H69.5992V76.8273ZM77.5992 56.8273V45.4273H77.4992V45.0273L77.0992 45.2273C76.9992 45.3273 76.7992 45.4273 76.5992 45.5273C76.3992 45.6273 76.0992 45.7273 75.7992 45.8273H75.5992C75.2992 45.9273 74.9992 45.9273 74.6992 45.9273H54.6992C50.8992 45.9273 47.7992 49.0273 47.7992 52.8273C47.7992 56.6273 50.8992 59.7273 54.6992 59.7273H74.6992C76.2992 59.7273 77.5992 58.4273 77.5992 56.8273ZM74.6992 37.9273H71.9992H71.6992V38.2273V43.5273V43.7273H71.9992H74.6992C76.2992 43.7273 77.5992 42.4273 77.5992 40.8273C77.5992 39.2273 76.2992 37.9273 74.6992 37.9273Z" fill="#4C4C4C"/>
<path d="M56.0992 17.6297C54.6992 17.6297 53.2992 17.0297 52.2992 16.0297L51.4992 15.2297C51.2992 15.0297 50.9992 14.9297 50.6992 14.9297C50.5992 14.9297 50.3992 14.9297 50.2992 15.0297L12.1992 29.1297H18.3992L50.1992 17.3297L50.3992 17.2297L50.4992 17.3297L50.6992 17.5297C51.8992 18.7297 53.3992 19.4297 55.0992 19.6297H55.2992V19.7297L58.3992 28.9297H60.6992L57.0992 18.1297C56.9992 17.9297 56.4992 17.6297 56.0992 17.6297Z" fill="#FF671F"/>
<path d="M57.7 7.12812L64.7 29.2281H67L62.9 16.2281L62 13.5281L59.3 5.12812C59.2 4.82812 59 4.52812 58.7 4.42812C58.6 4.32812 58.4 4.32812 58.2 4.32812C58.1 4.32812 57.9 4.32812 57.8 4.42812L47 8.52812L46.8 8.62813L46.7 8.42812L41.8 0.828125C41.6 0.628125 41.4 0.428125 41.1 0.328125C41 0.328125 40.9 0.328125 40.9 0.328125C40.7 0.328125 40.5 0.428125 40.3 0.528125L20.3 13.6281L16.2 16.3281L3 24.9281C3 24.9281 3.35077 25.6398 3.64463 26.0515C3.93924 26.4642 4.42942 27.0659 4.42942 27.0659L57.3 6.92812L57.5 6.82812L57.7 7.12812ZM44.5 9.52812L13.4 21.3281L11.2 22.1281L13.1 20.8281L40.4 3.02813L40.6 2.92813L40.7 3.12812L44.5 9.12813L44.7 9.42812L44.5 9.52812Z" fill="#FF671F"/>
<path d="M54.8 49.125C52.7 49.125 51 50.825 51 52.825C51 54.925 52.7 56.625 54.8 56.625C56.9 56.625 58.5 54.925 58.5 52.825C58.5 50.825 56.8 49.125 54.8 49.125ZM54.8 54.425C53.9 54.425 53.2 53.725 53.2 52.825C53.2 51.925 53.9 51.225 54.8 51.225C55.7 51.225 56.4 51.925 56.4 52.825C56.3 53.725 55.6 54.425 54.8 54.425Z" fill="#4C4C4C"/>
</svg>
