<svg width="24" height="24" viewBox="0 0 24 24" fill="none" xmlns="http://www.w3.org/2000/svg">
<path d="M19.4985 12.0123C19.4985 12.0123 19.4985 14.4459 19.1898 15.6194C19.0167 16.2618 18.5103 16.7682 17.8679 16.9411C16.6944 17.25 12.0003 17.25 12.0003 17.25C12.0003 17.25 7.31848 17.25 6.13269 16.9288C5.49036 16.756 4.98389 16.2493 4.81085 15.607C4.50195 14.4459 4.50195 12 4.50195 12C4.50195 12 4.50195 9.56653 4.81085 8.39301C4.9837 7.75067 5.50262 7.23175 6.13269 7.0589C7.30621 6.75 12.0003 6.75 12.0003 6.75C12.0003 6.75 16.6944 6.75 17.8679 7.07117C18.5103 7.24402 19.0167 7.75067 19.1898 8.39301C19.5109 9.56653 19.4985 12.0123 19.4985 12.0123Z" fill="white"/>
<path d="M10.5059 14.2483L14.4093 12.0001L10.5059 9.75195V14.2483Z" fill="#FF0000"/>
<path d="M12 0C5.3736 0 0 5.3736 0 12C0 18.6264 5.3736 24 12 24C18.6264 24 24 18.6264 24 12C24 5.3736 18.6264 0 12 0ZM19.4982 12.0123C19.4982 12.0123 19.4982 14.4459 19.1895 15.6194C19.0164 16.2618 18.5099 16.7682 17.8676 16.9411C16.6941 17.25 12 17.25 12 17.25C12 17.25 7.31818 17.25 6.13239 16.9288C5.49005 16.756 4.98358 16.2493 4.81055 15.607C4.50165 14.4459 4.50165 12 4.50165 12C4.50165 12 4.50165 9.56653 4.81055 8.39301C4.9834 7.75067 5.50232 7.23175 6.13239 7.0589C7.30591 6.75 12 6.75 12 6.75C12 6.75 16.6941 6.75 17.8676 7.07117C18.5099 7.24402 19.0164 7.75067 19.1895 8.39301C19.5106 9.56653 19.4982 12.0123 19.4982 12.0123Z" fill="#FF0000"/>
</svg>
