<svg width="114" height="31" viewBox="0 0 114 31" fill="none" xmlns="http://www.w3.org/2000/svg">
<path d="M10.7064 18.3797C10.7353 18.556 10.7225 18.7453 10.6583 18.9345C10.4531 19.515 9.80845 19.8228 9.22477 19.6176C9.1029 19.5727 8.99386 19.5117 8.89764 19.4348V19.4316L8.89444 19.4348L8.11512 18.7966L7.29412 18.1263C7.26205 18.0942 7.22356 18.075 7.18187 18.059C6.99265 17.9948 6.78099 18.0942 6.71364 18.2834V18.2867L6.36086 19.284L2.70803 29.6428H1.90626L5.99205 18.0654C5.99526 18.0557 5.99847 18.0429 6.00167 18.0333C6.20693 17.4528 6.85154 17.1417 7.43523 17.347C7.5603 17.3919 7.67255 17.4624 7.77197 17.5394L8.54487 18.1712L8.92651 18.4823L9.36267 18.8383C9.39474 18.8671 9.43322 18.8896 9.47492 18.9024C9.66734 18.9698 9.8758 18.8703 9.94315 18.6811C9.9656 18.617 9.97201 18.556 9.95918 18.4951L9.8341 17.4624L9.02272 10.8399L8.88482 9.71419C8.86557 9.5827 8.77578 9.46404 8.64108 9.41594H8.63787C8.63787 9.41594 8.63787 9.41273 8.63467 9.41273C8.50318 9.36783 8.36207 9.40311 8.26265 9.49291V9.4897L7.44806 10.2851L2.66634 14.9353L1.91588 15.6601H1.91909C1.87099 15.6986 1.83571 15.7531 1.81326 15.814C1.74591 16.0064 1.84854 16.2149 2.03775 16.2822C2.08265 16.2983 2.12434 16.3047 2.16603 16.3015L2.73048 16.2983L3.22436 16.2951L4.22176 16.2854C4.35004 16.2854 4.47832 16.3047 4.6034 16.3496C5.19029 16.5548 5.49817 17.2027 5.28971 17.7831C5.2865 17.7928 5.28329 17.8024 5.27688 17.812L1.1045 29.6428H0.302734L4.22497 18.5336L4.57774 17.533V17.5298C4.64509 17.3438 4.54567 17.1289 4.35325 17.0648C4.31156 17.0519 4.26986 17.0455 4.22817 17.0455L3.16664 17.0551L2.15641 17.0616C2.03454 17.0616 1.90947 17.0391 1.7876 16.9942C1.20392 16.7922 0.89604 16.1475 1.10129 15.5607C1.16543 15.3779 1.27447 15.2207 1.40917 15.0988L7.73669 8.95091C8.03495 8.66549 8.47431 8.55645 8.88802 8.70076H8.89123C8.89123 8.70397 8.89444 8.70397 8.89444 8.70397C9.30494 8.84829 9.57754 9.21069 9.63206 9.61798L10.7064 18.3797ZM34.0153 29.6525H42.6134L52.6066 1.47848H43.9796L34.0153 29.6525ZM68.4014 29.6492H76.9193L81.3675 17.2444C83.1442 14.2586 86.7104 14.9353 86.0466 17.5458L81.7812 29.6492H90.6744L94.8884 17.8152C96.0109 14.8423 100.671 14.6659 99.6573 18.1712L95.6902 29.6492H104.285L109.089 16.0353C110.686 11.4075 105.032 5.21149 95.2957 12.0297C94.1444 8.91884 89.3402 6.95613 82.9325 11.4941L83.3655 9.64364H75.3735L68.4014 29.6492ZM109.24 1.84408C109.49 0.955725 110.311 0.314315 111.289 0.314315C112.46 0.314315 113.425 1.27322 113.425 2.45021C113.425 3.64003 112.46 4.58611 111.289 4.58611C110.1 4.58611 109.141 3.64003 109.141 2.45021C109.141 2.23855 109.173 2.03971 109.24 1.84408L108.996 1.73825C108.919 1.97236 108.89 2.20006 108.89 2.45021C108.89 3.78435 109.955 4.8523 111.289 4.8523C112.611 4.8523 113.695 3.78435 113.695 2.45021C113.695 1.13211 112.611 0.0449219 111.289 0.0449219C110.205 0.0449219 109.298 0.756888 108.996 1.73825L109.24 1.84408ZM110.863 2.39569H110.776V1.68373H111.77C112.216 1.8088 112.021 2.39569 111.684 2.39569H110.863V2.64584H111.453C112.197 2.75168 111.828 3.42836 112.001 3.64003H112.255C112.053 3.37384 112.389 2.84147 111.908 2.59132C112.553 2.3059 112.284 1.3983 111.684 1.41754H110.523V3.62399H110.757V2.64584H110.863V2.39569ZM59.6685 9.6276H51.6092L46.8596 22.9401C44.4928 30.451 52.055 32.9429 59.258 27.7443L58.7802 29.6492H66.4643L73.5423 9.64685H65.3258L61.1278 21.0736C60.1496 23.8669 54.688 25.432 55.5218 21.1602L59.6685 9.6276ZM23.9997 10.6891C34.6375 4.37124 39.974 12.9661 35.2949 21.6348C29.3362 33.6484 18.1789 30.8006 17.6818 27.4171L16.7581 29.6428H8.66353L18.5733 1.43358H27.2003L23.9997 10.6891ZM26.9341 21.4199C28.6242 19.3193 28.8904 16.2053 27.2548 15.1373C25.8662 14.2297 24.1408 14.6915 22.6271 16.1155C22.1845 16.526 21.774 17.0231 21.3827 17.5939C19.7824 19.9062 19.6926 22.3468 21.2929 23.4147C22.7714 24.3929 25.3338 23.3955 26.9341 21.4199Z" fill="white"/>
</svg>
