<svg width="80" height="80" viewBox="0 0 80 80" fill="none" xmlns="http://www.w3.org/2000/svg">
<g clip-path="url(#clip0)">
<mask id="path-1-inside-1" fill="white">
<path fill-rule="evenodd" clip-rule="evenodd" d="M57.5541 23.753L78.9293 28.0261C79.5521 28.1511 80.0004 28.698 80.0008 29.3333V78.6667C80.0008 79.403 79.4039 79.9998 78.6675 80C78.5796 79.9997 78.4921 79.9909 78.4058 79.9739L52.008 74.6944L26.9424 79.9713C26.7611 80.0094 26.5739 80.0094 26.3928 79.9713L1.05957 74.638C0.442695 74.508 0.00113281 73.9638 0.000976562 73.3333V24C0.00113281 23.5983 0.182383 23.218 0.494414 22.9648C0.806289 22.7117 1.21582 22.6127 1.60895 22.6953L26.6671 27.9708L27.6485 27.7638C25.625 23.3981 24.1714 19.317 24.1714 16.6211C24.1714 7.45578 32.0541 0 41.7443 0C51.4344 0 59.3172 7.45578 59.3172 16.6211C59.1375 19.0811 58.5413 21.4927 57.5541 23.753ZM2.66738 39.0169C7.53754 36.9312 17.3577 34.0242 25.3341 39.7909V30.4153L2.66738 25.6431V39.0169ZM35.2222 52.7773C38.2403 58.5559 40.4789 62.7923 50.6675 63.8678L50.6674 37.6506C48.0338 42.2567 45.5113 46.2047 44.2846 48.0092C43.7052 48.8391 42.7569 49.3334 41.7449 49.3334C40.7328 49.3334 39.7846 48.8391 39.2052 48.0092C35.4063 42.2925 31.9449 36.3584 28.8389 30.2375L28.0008 30.4141V42.138C30.9377 45.2944 33.3732 48.8827 35.2222 52.7773ZM50.7777 31.9298L50.7833 31.9201C50.7856 31.9161 50.7878 31.9121 50.7897 31.9078C54.0186 25.802 56.6505 19.7634 56.6504 16.6211C56.6504 8.92719 49.9629 2.66672 41.7441 2.66672C33.5254 2.66672 26.8379 8.92719 26.8379 16.6213C26.8379 22.5991 36.3288 39.0378 41.4108 46.5092C41.4932 46.6089 41.6155 46.6667 41.7449 46.6667C41.8743 46.6667 41.9968 46.6091 42.0789 46.5092C45.2208 41.805 48.1214 36.9441 50.7699 31.9453C50.7708 31.9432 50.7717 31.9411 50.7727 31.939C50.7743 31.9358 50.776 31.9328 50.7777 31.9298ZM53.3341 72.2408L77.3341 77.0403V61.3722C74.09 63.5097 67.2768 66.8177 56.1505 66.8177C55.2446 66.8177 54.2983 66.7866 53.3341 66.74V72.2408ZM53.3341 64.0581C68.0414 64.792 75.5982 59.4891 77.3341 58.0641V30.4272L56.5164 26.2648C55.5852 28.3877 54.4888 30.61 53.3341 32.8019V33.0487V38.125V64.0581ZM25.3341 77.0234L2.66754 72.2513V55.4102L2.66738 52.6361V41.9395C7.4652 39.6512 17.7553 36.1459 25.3341 43.2641V64.0105L25.3343 67.5112L25.3341 77.0234ZM28.0008 70.112V77.0234L32.4313 76.0906L35.1704 75.5139L35.2222 75.503L50.6675 72.2513V66.542C38.8214 65.3623 36.0352 60.0936 32.8589 54.0117C31.5068 51.2383 29.8793 48.6078 28.0008 46.1602V66.3536V70.112Z"/>
</mask>
<path fill-rule="evenodd" clip-rule="evenodd" d="M57.5541 23.753L78.9293 28.0261C79.5521 28.1511 80.0004 28.698 80.0008 29.3333V78.6667C80.0008 79.403 79.4039 79.9998 78.6675 80C78.5796 79.9997 78.4921 79.9909 78.4058 79.9739L52.008 74.6944L26.9424 79.9713C26.7611 80.0094 26.5739 80.0094 26.3928 79.9713L1.05957 74.638C0.442695 74.508 0.00113281 73.9638 0.000976562 73.3333V24C0.00113281 23.5983 0.182383 23.218 0.494414 22.9648C0.806289 22.7117 1.21582 22.6127 1.60895 22.6953L26.6671 27.9708L27.6485 27.7638C25.625 23.3981 24.1714 19.317 24.1714 16.6211C24.1714 7.45578 32.0541 0 41.7443 0C51.4344 0 59.3172 7.45578 59.3172 16.6211C59.1375 19.0811 58.5413 21.4927 57.5541 23.753ZM2.66738 39.0169C7.53754 36.9312 17.3577 34.0242 25.3341 39.7909V30.4153L2.66738 25.6431V39.0169ZM35.2222 52.7773C38.2403 58.5559 40.4789 62.7923 50.6675 63.8678L50.6674 37.6506C48.0338 42.2567 45.5113 46.2047 44.2846 48.0092C43.7052 48.8391 42.7569 49.3334 41.7449 49.3334C40.7328 49.3334 39.7846 48.8391 39.2052 48.0092C35.4063 42.2925 31.9449 36.3584 28.8389 30.2375L28.0008 30.4141V42.138C30.9377 45.2944 33.3732 48.8827 35.2222 52.7773ZM50.7777 31.9298L50.7833 31.9201C50.7856 31.9161 50.7878 31.9121 50.7897 31.9078C54.0186 25.802 56.6505 19.7634 56.6504 16.6211C56.6504 8.92719 49.9629 2.66672 41.7441 2.66672C33.5254 2.66672 26.8379 8.92719 26.8379 16.6213C26.8379 22.5991 36.3288 39.0378 41.4108 46.5092C41.4932 46.6089 41.6155 46.6667 41.7449 46.6667C41.8743 46.6667 41.9968 46.6091 42.0789 46.5092C45.2208 41.805 48.1214 36.9441 50.7699 31.9453C50.7708 31.9432 50.7717 31.9411 50.7727 31.939C50.7743 31.9358 50.776 31.9328 50.7777 31.9298ZM53.3341 72.2408L77.3341 77.0403V61.3722C74.09 63.5097 67.2768 66.8177 56.1505 66.8177C55.2446 66.8177 54.2983 66.7866 53.3341 66.74V72.2408ZM53.3341 64.0581C68.0414 64.792 75.5982 59.4891 77.3341 58.0641V30.4272L56.5164 26.2648C55.5852 28.3877 54.4888 30.61 53.3341 32.8019V33.0487V38.125V64.0581ZM25.3341 77.0234L2.66754 72.2513V55.4102L2.66738 52.6361V41.9395C7.4652 39.6512 17.7553 36.1459 25.3341 43.2641V64.0105L25.3343 67.5112L25.3341 77.0234ZM28.0008 70.112V77.0234L32.4313 76.0906L35.1704 75.5139L35.2222 75.503L50.6675 72.2513V66.542C38.8214 65.3623 36.0352 60.0936 32.8589 54.0117C31.5068 51.2383 29.8793 48.6078 28.0008 46.1602V66.3536V70.112Z" fill="#4C4C4C"/>
<path d="M32.457 76.2129L35.248 75.6253L35.1965 75.3807L32.4055 75.9683L32.457 76.2129ZM50.6749 31.8579C50.6743 31.859 50.6736 31.8602 50.6726 31.8618C50.6717 31.8633 50.6705 31.8654 50.6693 31.8676L50.8861 31.992C50.8867 31.9909 50.8874 31.9897 50.8884 31.988C50.8893 31.9865 50.8906 31.9844 50.8918 31.9822L50.6749 31.8579ZM78.9293 28.0261L78.9785 27.781L78.9783 27.7809L78.9293 28.0261ZM57.5541 23.753L57.325 23.6529L57.2008 23.9373L57.5051 23.9981L57.5541 23.753ZM59.3172 16.6211L59.5666 16.6393L59.5672 16.6302V16.6211H59.3172ZM27.6485 27.7638L27.7001 28.0084L28.0074 27.9435L27.8753 27.6586L27.6485 27.7638ZM26.6671 27.9708L26.6156 28.2154L26.6671 28.2263L26.7187 28.2154L26.6671 27.9708ZM1.60895 22.6953L1.66045 22.4507L1.66038 22.4507L1.60895 22.6953ZM0.494414 22.9648L0.651912 23.159L0.65196 23.159L0.494414 22.9648ZM0.000976562 24L-0.249023 23.9999V24H0.000976562ZM0.000976562 73.3333H-0.249023L-0.249023 73.3333L0.000976562 73.3333ZM1.05957 74.638L1.00802 74.8826L1.00807 74.8826L1.05957 74.638ZM26.3928 79.9713L26.4444 79.7266L26.3928 79.9713ZM26.9424 79.9713L26.9938 80.2159L26.9939 80.2159L26.9424 79.9713ZM52.008 74.6944L52.057 74.4492L52.0067 74.4392L51.9565 74.4497L52.008 74.6944ZM78.4058 79.9739L78.3568 80.2191L78.3574 80.2192L78.4058 79.9739ZM78.6675 80L78.6667 80.25H78.6676L78.6675 80ZM80.0008 29.3333H80.2508V29.3331L80.0008 29.3333ZM25.3341 77.0234L25.2826 77.2681L25.5841 77.3316L25.5841 77.0234L25.3341 77.0234ZM2.66754 72.2513H2.41754V72.4541L2.61603 72.4959L2.66754 72.2513ZM2.66754 55.4102H2.91754V55.4101L2.66754 55.4102ZM25.3343 67.5112L25.5843 67.5113V67.5112L25.3343 67.5112ZM25.3341 64.0105H25.0841V64.0105L25.3341 64.0105ZM2.66738 52.6361H2.41738V52.6361L2.66738 52.6361ZM2.66738 41.9395L2.55976 41.7139L2.41738 41.7818V41.9395H2.66738ZM25.3341 43.2641H25.5841V43.1559L25.5053 43.0818L25.3341 43.2641ZM25.3341 39.7909L25.1876 39.9935L25.5841 40.2802V39.7909H25.3341ZM2.66738 39.0169H2.41738V39.3959L2.7658 39.2467L2.66738 39.0169ZM2.66738 25.6431L2.71889 25.3985L2.41738 25.335V25.6431H2.66738ZM25.3341 30.4153H25.5841V30.2125L25.3856 30.1707L25.3341 30.4153ZM28.0008 77.0234H27.7508V77.3316L28.0523 77.2681L28.0008 77.0234ZM32.4313 76.0906L32.4828 76.3353H32.4828L32.4313 76.0906ZM50.6675 72.2513L50.719 72.4959L50.9175 72.4541V72.2513H50.6675ZM35.1704 75.5139L35.1189 75.2693H35.1188L35.1704 75.5139ZM28.0008 46.1602L28.1991 46.0079L27.7508 45.4238V46.1602H28.0008ZM32.8589 54.0117L32.6341 54.1213L32.6373 54.1274L32.8589 54.0117ZM50.6675 66.542H50.9175V66.3157L50.6923 66.2933L50.6675 66.542ZM50.6675 63.8678L50.6413 64.1164L50.9175 64.1456V63.8678H50.6675ZM35.2222 52.7773L34.9962 52.8846L35.0006 52.8931L35.2222 52.7773ZM28.0008 42.138H27.7508V42.2363L27.8178 42.3083L28.0008 42.138ZM28.0008 30.4141L27.9493 30.1694L27.7508 30.2112V30.4141H28.0008ZM28.8389 30.2375L29.0619 30.1244L28.9751 29.9533L28.7874 29.9929L28.8389 30.2375ZM39.2052 48.0092L38.9969 48.1476L39.0002 48.1523L39.2052 48.0092ZM44.2846 48.0092L44.4896 48.1523L44.4913 48.1498L44.2846 48.0092ZM50.6674 37.6506H50.9174L50.9174 36.7097L50.4504 37.5265L50.6674 37.6506ZM50.7897 31.9078L50.5687 31.7909L50.5651 31.7978L50.5619 31.8049L50.7897 31.9078ZM50.7699 31.9453L50.9908 32.0624L50.9967 32.0513L51.0014 32.0397L50.7699 31.9453ZM42.0789 46.5092L42.272 46.6681L42.2799 46.6585L42.2868 46.6481L42.0789 46.5092ZM41.4108 46.5092L41.2041 46.6498L41.2107 46.6595L41.2181 46.6684L41.4108 46.5092ZM56.6504 16.6211H56.4004V16.6211L56.6504 16.6211ZM77.3341 77.0403L77.2851 77.2855L77.5841 77.3453V77.0403H77.3341ZM53.3341 72.2408H53.0841V72.4457L53.2851 72.4859L53.3341 72.2408ZM53.3341 66.74L53.3462 66.4903L53.0841 66.4776V66.74H53.3341ZM77.3341 61.3722H77.5841V60.9081L77.1966 61.1634L77.3341 61.3722ZM77.3341 58.0641L77.4927 58.2573L77.5841 58.1823V58.0641H77.3341ZM53.3341 64.0581H53.0841V64.296L53.3216 64.3078L53.3341 64.0581ZM53.3341 32.8019L53.1129 32.6854L53.0841 32.7401V32.8019H53.3341ZM56.5164 26.2648L56.5655 26.0197L56.3683 25.9803L56.2875 26.1644L56.5164 26.2648ZM77.3341 30.4272H77.5841V30.2222L77.3831 30.182L77.3341 30.4272ZM50.7777 31.9298L50.5615 31.8042L50.5608 31.8054L50.7777 31.9298ZM35.2222 75.503L35.2737 75.7476H35.2737L35.2222 75.503ZM50.7833 31.9201L50.9995 32.0457L51.0003 32.0443L50.7833 31.9201ZM50.7727 31.939L50.5484 31.8286L50.5483 31.8288L50.7727 31.939ZM78.9783 27.7809L57.6031 23.5078L57.5051 23.9981L78.8802 28.2712L78.9783 27.7809ZM57.7832 23.853C58.7817 21.5668 59.3848 19.1275 59.5666 16.6393L59.0679 16.6029C58.8903 19.0346 58.3009 21.4185 57.325 23.6529L57.7832 23.853ZM59.5672 16.6211C59.5672 7.30477 51.5592 -0.25 41.7443 -0.25V0.25C51.3096 0.25 59.0672 7.60679 59.0672 16.6211H59.5672ZM41.7443 -0.25C31.9293 -0.25 23.9214 7.30478 23.9214 16.6211H24.4214C24.4214 7.60678 32.1789 0.25 41.7443 0.25V-0.25ZM23.9214 16.6211C23.9214 18.0077 24.294 19.7311 24.9133 21.6433C25.5338 23.5591 26.4074 25.6807 27.4217 27.8689L27.8753 27.6586C26.8661 25.4812 26.0012 23.3794 25.389 21.4893C24.7757 19.5955 24.4214 17.9304 24.4214 16.6211H23.9214ZM27.5969 27.5191L26.6155 27.7262L26.7187 28.2154L27.7001 28.0084L27.5969 27.5191ZM26.7186 27.7261L1.66045 22.4507L1.55744 22.9399L26.6156 28.2154L26.7186 27.7261ZM1.66038 22.4507C1.19354 22.3525 0.707228 22.4701 0.336868 22.7707L0.65196 23.159C0.90535 22.9533 1.23811 22.8728 1.55751 22.94L1.66038 22.4507ZM0.336916 22.7707C-0.0336127 23.0713 -0.248838 23.5229 -0.249023 23.9999L0.250977 24.0001C0.251103 23.6737 0.398378 23.3647 0.651912 23.159L0.336916 22.7707ZM-0.249023 24V73.3333H0.250977V24H-0.249023ZM-0.249023 73.3333C-0.248838 74.082 0.275489 74.7282 1.00802 74.8826L1.11112 74.3933C0.609901 74.2877 0.251104 73.8455 0.250977 73.3332L-0.249023 73.3333ZM1.00807 74.8826L26.3413 80.2159L26.4444 79.7266L1.11107 74.3933L1.00807 74.8826ZM26.3413 80.2159C26.5564 80.2612 26.7787 80.2612 26.9938 80.2159L26.8909 79.7266C26.7436 79.7576 26.5915 79.7576 26.4444 79.7266L26.3413 80.2159ZM26.9939 80.2159L52.0595 74.939L51.9565 74.4497L26.8909 79.7266L26.9939 80.2159ZM51.959 74.9395L78.3568 80.2191L78.4548 79.7288L52.057 74.4492L51.959 74.9395ZM78.3574 80.2192C78.4592 80.2393 78.5627 80.2496 78.6667 80.25L78.6684 79.75C78.5965 79.7497 78.5249 79.7426 78.4542 79.7286L78.3574 80.2192ZM78.6676 80.25C79.542 80.2498 80.2508 79.5411 80.2508 78.6667H79.7508C79.7508 79.2649 79.2659 79.7499 78.6675 79.75L78.6676 80.25ZM80.2508 78.6667V29.3333H79.7508V78.6667H80.2508ZM80.2508 29.3331C80.2503 28.5788 79.718 27.9294 78.9785 27.781L78.8801 28.2712C79.3861 28.3728 79.7504 28.8172 79.7508 29.3335L80.2508 29.3331ZM25.3856 76.7788L2.71904 72.0066L2.61603 72.4959L25.2826 77.2681L25.3856 76.7788ZM2.91754 72.2513V55.4102H2.41754V72.2513H2.91754ZM25.0843 67.5112L25.0841 77.0234L25.5841 77.0234L25.5843 67.5113L25.0843 67.5112ZM2.91738 52.6361V41.9395H2.41738V52.6361H2.91738ZM2.775 42.1652C5.15962 41.0279 8.89908 39.5935 12.9744 39.3238C17.0442 39.0546 21.4367 39.9465 25.1629 43.4463L25.5053 43.0818C21.6528 39.4635 17.1108 38.549 12.9414 38.8249C8.77749 39.1005 4.97296 40.5629 2.55976 41.7139L2.775 42.1652ZM25.0841 43.2641V64.0105H25.5841V43.2641H25.0841ZM25.4806 39.5883C17.387 33.7369 7.44849 36.6974 2.56897 38.7871L2.7658 39.2467C7.62659 37.1651 17.3283 34.3115 25.1876 39.9935L25.4806 39.5883ZM2.91738 39.0169V25.6431H2.41738V39.0169H2.91738ZM2.61588 25.8878L25.2826 30.66L25.3856 30.1707L2.71889 25.3985L2.61588 25.8878ZM25.0841 30.4153V39.7909H25.5841V30.4153H25.0841ZM28.2508 77.0234V70.112H27.7508V77.0234H28.2508ZM32.3798 75.846L27.9493 76.7788L28.0523 77.2681L32.4828 76.3353L32.3798 75.846ZM28.2508 66.3536V46.1602H27.7508V66.3536H28.2508ZM27.8025 46.3124C29.6707 48.7467 31.2894 51.3629 32.6342 54.1213L33.0837 53.9022C31.7241 51.1137 30.0878 48.4689 28.1991 46.0079L27.8025 46.3124ZM32.6373 54.1274C34.2223 57.1623 35.7326 60.0435 38.3486 62.3043C40.9721 64.5717 44.6837 66.1974 50.6428 66.7908L50.6923 66.2933C44.8053 65.707 41.2007 64.1084 38.6755 61.926C36.1428 59.7371 34.6718 56.943 33.0805 53.896L32.6373 54.1274ZM50.4175 66.542V72.2513H50.9175V66.542H50.4175ZM50.6938 63.6192C45.6323 63.0849 42.5798 61.7695 40.4197 59.8973C38.2511 58.0178 36.9569 55.5587 35.4438 52.6616L35.0006 52.8931C36.5056 55.7746 37.8398 58.323 40.0922 60.2752C42.3531 62.2347 45.5142 63.5752 50.6413 64.1164L50.6938 63.6192ZM35.4481 52.6701C33.588 48.7523 31.1381 45.1428 28.1838 41.9677L27.8178 42.3083C30.7373 45.446 33.1583 49.013 34.9964 52.8846L35.4481 52.6701ZM28.2508 42.138V30.4141H27.7508V42.138H28.2508ZM28.0524 30.6587L28.8905 30.4821L28.7874 29.9929L27.9493 30.1694L28.0524 30.6587ZM28.616 30.3506C31.7264 36.4803 35.1927 42.4227 38.997 48.1476L39.4134 47.8709C35.6199 42.1623 32.1634 36.2366 29.0619 30.1244L28.616 30.3506ZM39.0002 48.1523C39.6264 49.0492 40.6512 49.5834 41.7449 49.5834V49.0834C40.8145 49.0834 39.9428 48.629 39.4102 47.8661L39.0002 48.1523ZM41.7449 49.5834C42.8386 49.5834 43.8634 49.0492 44.4896 48.1523L44.0796 47.8661C43.547 48.629 42.6752 49.0834 41.7449 49.0834V49.5834ZM44.4913 48.1498C45.7219 46.3395 48.2478 42.386 50.8844 37.7747L50.4504 37.5265C47.8197 42.1274 45.3006 46.0699 44.0778 47.8687L44.4913 48.1498ZM50.4174 37.6506L50.4175 63.8678H50.9175L50.9174 37.6506H50.4174ZM50.549 31.8283C47.9045 36.8195 45.0082 41.6732 41.871 46.3704L42.2868 46.6481C45.4334 41.9368 48.3384 37.0686 50.9908 32.0624L50.549 31.8283ZM41.8859 46.3503C41.8514 46.3923 41.7998 46.4167 41.7449 46.4167V46.9167C41.9487 46.9167 42.1421 46.8258 42.272 46.6681L41.8859 46.3503ZM41.7449 46.4167C41.6903 46.4167 41.6386 46.3924 41.6036 46.35L41.2181 46.6684C41.3478 46.8254 41.5407 46.9167 41.7449 46.9167V46.4167ZM41.6175 46.3686C39.082 42.6409 35.4438 36.6719 32.4404 30.8899C30.9387 27.9989 29.598 25.159 28.6333 22.6721C27.6652 20.1764 27.0879 18.0656 27.0879 16.6213H26.5879C26.5879 18.1658 27.1968 20.3515 28.1671 22.8529C29.1408 25.363 30.4904 28.2205 31.9967 31.1204C35.0093 36.9201 38.6576 42.9061 41.2041 46.6498L41.6175 46.3686ZM27.0879 16.6213C27.0879 9.08054 33.6476 2.91672 41.7441 2.91672V2.41672C33.4031 2.41672 26.5879 8.77384 26.5879 16.6213H27.0879ZM41.7441 2.91672C49.8406 2.91672 56.4004 9.08054 56.4004 16.6211H56.9004C56.9004 8.77383 50.0851 2.41672 41.7441 2.41672V2.91672ZM56.4004 16.6211C56.4004 18.1404 55.7595 20.3968 54.6987 23.0607C53.6417 25.7149 52.1809 28.7423 50.5687 31.7909L51.0107 32.0247C52.6274 28.9675 54.0971 25.9227 55.1632 23.2457C56.2255 20.5782 56.9004 18.2441 56.9004 16.6211L56.4004 16.6211ZM77.3831 76.7952L53.3831 71.9956L53.2851 72.4859L77.2851 77.2855L77.3831 76.7952ZM53.5841 72.2408V66.74H53.0841V72.2408H53.5841ZM53.322 66.9897C54.2885 67.0364 55.2391 67.0677 56.1505 67.0677V66.5677C55.25 66.5677 54.3081 66.5367 53.3462 66.4903L53.322 66.9897ZM56.1505 67.0677C67.3297 67.0677 74.1902 63.7431 77.4717 61.5809L77.1966 61.1634C73.9899 63.2763 67.2239 66.5677 56.1505 66.5677V67.0677ZM77.0841 61.3722V77.0403H77.5841V61.3722H77.0841ZM77.1755 57.8708C75.4804 59.2623 67.9832 64.5388 53.3466 63.8084L53.3216 64.3078C68.0997 65.0452 75.7159 59.7159 77.4927 58.2573L77.1755 57.8708ZM53.5841 64.0581V38.125H53.0841V64.0581H53.5841ZM53.5841 33.0487V32.8019H53.0841V33.0487H53.5841ZM53.5553 32.9184C54.7119 30.7229 55.8111 28.495 56.7454 26.3653L56.2875 26.1644C55.3593 28.2803 54.2657 30.4971 53.1129 32.6854L53.5553 32.9184ZM56.4674 26.51L77.2851 30.6723L77.3831 30.182L56.5655 26.0197L56.4674 26.51ZM77.0841 30.4272V58.0641H77.5841V30.4272H77.0841ZM53.0841 33.0487V38.125H53.5841V33.0487H53.0841ZM27.7508 66.3536V70.112H28.2508V66.3536H27.7508ZM50.616 72.0066L35.1707 75.2584L35.2737 75.7476L50.719 72.4959L50.616 72.0066ZM35.1707 75.2584L35.1189 75.2693L35.2218 75.7585L35.2737 75.7476L35.1707 75.2584ZM25.0841 64.0105L25.0843 67.5113L25.5843 67.5112L25.5841 64.0105L25.0841 64.0105ZM2.41738 52.6361L2.41754 55.4102L2.91754 55.4101L2.91738 52.6361L2.41738 52.6361ZM50.5619 31.8049C50.5648 31.7985 50.5671 31.7946 50.5664 31.7958L51.0003 32.0443C51.0041 32.0376 51.0108 32.0256 51.0175 32.0108L50.5619 31.8049ZM50.9939 32.0554L50.9995 32.0457L50.5672 31.7945L50.5615 31.8042L50.9939 32.0554ZM51.0014 32.0397C50.9997 32.0438 50.9982 32.0471 50.9971 32.0492L50.5483 31.8288C50.5453 31.8351 50.5418 31.8425 50.5384 31.8509L51.0014 32.0397ZM50.997 32.0495C50.9953 32.053 50.994 32.0551 50.9946 32.0542L50.5608 31.8054C50.5579 31.8105 50.5533 31.8187 50.5484 31.8286L50.997 32.0495ZM32.4828 76.3353L35.2219 75.7585L35.1188 75.2693L32.3798 75.846L32.4828 76.3353Z" fill="white" mask="url(#path-1-inside-1)"/>
<path d="M57.4395 23.7029L57.4385 23.7052L56.4019 26.2146C56.4017 26.215 56.4016 26.2154 56.4014 26.2159C55.4719 28.3345 54.3773 30.5533 53.224 32.7426C53.2238 32.743 53.2236 32.7433 53.2235 32.7436L50.5588 37.5886C50.5586 37.5889 50.5585 37.5891 50.5583 37.5894C47.9267 42.1921 45.4063 46.1366 44.1815 47.9384C43.6255 48.7343 42.7157 49.2084 41.7448 49.2084C40.7741 49.2084 39.8645 48.7345 39.3084 47.9388C35.5128 42.2269 32.0543 36.2979 28.951 30.1821C28.9508 30.1817 28.9506 30.1813 28.9504 30.1809L27.7618 27.7112C27.7617 27.7109 27.7616 27.7106 27.7614 27.7104C26.7511 25.5305 25.8842 23.4241 25.27 21.5278C24.6552 19.6294 24.2964 17.9497 24.2964 16.6211C24.2964 7.53128 32.1164 0.125 41.7442 0.125C51.3704 0.125 59.1896 7.52881 59.1922 16.6165C59.0131 19.0608 58.4204 21.457 57.4395 23.7029ZM41.3074 46.5795L41.307 46.5798L50.8849 31.994C50.8847 31.9945 50.8847 31.9944 50.885 31.9939L50.885 31.9938L50.8883 31.9881C50.8911 31.9834 50.8977 31.9723 50.9036 31.9593L50.7897 31.9078L50.9002 31.9662C52.5158 28.9112 53.9832 25.8708 55.047 23.1994C56.1089 20.5329 56.7754 18.2182 56.7753 16.6211C56.7753 8.85051 50.0239 2.54172 41.744 2.54172C33.4642 2.54172 26.7128 8.85051 26.7128 16.6213C26.7128 18.1407 27.3139 20.3077 28.2836 22.8077C29.255 25.312 30.6024 28.1651 32.1076 31.0628C35.1179 36.858 38.7637 42.8398 41.3074 46.5795Z" fill="#FF671F" stroke="white" stroke-width="0.25"/>
<path d="M41.744 22.2475H41.7441C44.7588 22.2475 47.2024 19.8037 47.2024 16.7892C47.2024 13.7747 44.7586 11.3309 41.7441 11.3309C38.7296 11.3309 36.2859 13.7747 36.2859 16.7892V16.7893C36.2887 19.8025 38.7307 22.2445 41.744 22.2475ZM33.8691 16.7891C33.8691 12.4398 37.3949 8.91406 41.7441 8.91406C46.0933 8.91406 49.6191 12.4397 49.6191 16.7889C49.6144 21.1362 46.0913 24.6593 41.744 24.6641C37.3948 24.664 33.8691 21.1383 33.8691 16.7891Z" fill="#FF671F" stroke="white" stroke-width="0.25"/>
</g>
<defs>
<clipPath id="clip0">
<rect width="80" height="80" fill="white"/>
</clipPath>
</defs>
</svg>
