<svg width="120" height="43" viewBox="0 0 120 43" fill="none" xmlns="http://www.w3.org/2000/svg">
<path fill-rule="evenodd" clip-rule="evenodd" d="M52.5303 7.29297C52.5303 7.29297 52.5303 7.29297 55.0543 7.29297C55.974 7.29297 56.4373 7.74887 56.4373 8.77811C56.4373 8.77811 56.4373 8.77811 56.4373 12.4253C56.4373 12.4253 56.4373 12.4253 61.3815 12.4253C61.3815 12.4253 61.3815 12.4253 61.3815 8.77811C61.3815 7.74887 61.8379 7.29297 62.8752 7.29297C62.8752 7.29297 62.8752 7.29297 65.2885 7.29297C65.2885 7.29297 65.2885 7.29297 65.2885 9.68992C65.2885 9.68992 65.2885 9.68992 64.2582 9.68992L64.1406 9.80735C64.1406 9.80735 64.1406 9.80735 64.1406 20.0721C64.1406 20.0721 64.1406 20.0721 61.3815 20.0721C61.3815 20.0721 61.3815 20.0721 61.3815 14.9397C61.3815 14.9397 61.3815 14.9397 56.4373 14.9397C56.4373 14.9397 56.4373 14.9397 56.4373 20.0721C56.4373 20.0721 56.4373 20.0721 53.6782 20.0721C53.6782 20.0721 53.6782 20.0721 53.6782 9.80735C53.6782 9.80735 53.6782 9.68992 53.5606 9.68992C53.5606 9.68992 53.5606 9.68992 52.5303 9.68992C52.5303 9.68992 52.5303 9.68992 52.5303 7.29297Z" fill="#ED1C24"/>
<path fill-rule="evenodd" clip-rule="evenodd" d="M72.5279 7.06641L72.5901 7.07331V9.70512L72.5279 9.69131C70.4603 9.69131 68.8491 11.4044 68.8491 13.5734C68.8491 15.8529 70.4603 17.6765 72.5279 17.6765L72.5901 17.6627V20.2945L72.5279 20.3014C68.8491 20.3014 65.8618 17.3381 65.8618 13.5734C65.8618 9.91926 68.8491 7.06641 72.5279 7.06641Z" fill="#ED1C24"/>
<path fill-rule="evenodd" clip-rule="evenodd" d="M72.5903 7.07422L73.8696 7.19856C76.9053 7.79262 79.1942 10.3761 79.1942 13.5743C79.1942 16.8623 76.9053 19.5494 73.8696 20.1642L72.5903 20.2954V17.6636L73.9941 17.3597C75.3494 16.738 76.3245 15.2805 76.3245 13.5743C76.3245 11.9441 75.3494 10.5764 73.9941 9.99615L72.5903 9.70603V7.07422Z" fill="#ED1C24"/>
<path fill-rule="evenodd" clip-rule="evenodd" d="M79.7686 7.29297C79.7686 7.29297 79.7686 7.29297 83.6202 7.29297H85.4596V9.68992H85.2868C85.0586 9.68992 84.5953 9.68992 83.6756 9.68992C83.6756 9.68992 83.6756 9.68992 83.6756 12.3148C83.6756 12.3148 83.6756 12.3148 84.457 12.3148H85.4596V14.5943H84.8719C84.5814 14.5943 84.1942 14.5943 83.6756 14.5943C83.6756 14.5943 83.6756 14.5943 83.6756 17.4472C83.6756 17.5646 83.6756 17.5646 83.7931 17.5646C83.7931 17.5646 83.7931 17.5646 84.616 17.5646H85.4596V20.0721H85.2176C84.8027 20.0721 83.966 20.0721 82.2995 20.0721C81.3798 20.0721 80.9234 19.6162 80.9234 18.5869V9.68992C80.9234 9.68992 80.9234 9.68992 79.7686 9.68992C79.7686 9.68992 79.7686 9.68992 79.7686 7.29297Z" fill="#ED1C24"/>
<path fill-rule="evenodd" clip-rule="evenodd" d="M85.4595 7.29297H85.5148C88.0457 7.29297 89.5393 8.66068 89.5393 10.7192C89.5393 11.9694 88.9654 12.7707 88.3914 13.3441C89.4287 13.8 90.1133 14.9397 90.1133 16.19C90.1133 18.5869 88.2739 20.0721 85.6323 20.0721C85.6323 20.0721 85.6323 20.0721 85.5839 20.0721H85.4595V17.5646H85.743C86.6627 17.5646 87.2436 16.9913 87.2436 16.0795C87.2436 15.1677 86.6627 14.5943 85.743 14.5943C85.743 14.5943 85.743 14.5943 85.4871 14.5943H85.4595V12.3148H85.5148C86.3239 12.3148 86.7802 11.7415 86.7802 10.9471C86.7802 10.1458 86.3239 9.68992 85.5148 9.68992C85.5148 9.68992 85.5148 9.68992 85.4871 9.68992H85.4595V7.29297Z" fill="#ED1C24"/>
<path fill-rule="evenodd" clip-rule="evenodd" d="M95.4032 7.29297C95.4032 7.29297 95.4032 7.29297 96.5649 7.29297H96.7792V10.9471C96.6686 11.1751 96.551 11.5135 96.551 11.8589C96.551 11.8589 96.551 11.8589 95.6313 14.4838C95.6313 14.4838 95.6313 14.4838 96.6064 14.4838H96.7792V16.8739H96.1569C95.8042 16.8739 95.4032 16.8739 94.9468 16.8739C94.9468 16.8739 94.9468 16.8739 94.1377 18.9323C93.9095 19.7267 93.4531 20.0721 92.5334 20.0721C92.5334 20.0721 92.5334 20.0721 90.8047 20.0721C90.8047 20.0721 90.8047 20.0721 90.8047 17.5646C90.8047 17.5646 90.8047 17.5646 91.3786 17.5646C91.6137 17.5646 91.6137 17.5646 91.7244 17.4472C91.7244 17.4472 91.7244 17.4472 95.4032 7.29297Z" fill="#ED1C24"/>
<path fill-rule="evenodd" clip-rule="evenodd" d="M96.7793 7.29297H98.1623C98.1623 7.29297 98.1623 7.29297 101.841 17.4472C101.952 17.5646 101.952 17.5646 102.18 17.5646C102.18 17.5646 102.18 17.5646 102.643 17.5646C102.643 17.5646 102.643 17.5646 102.643 20.0721C102.643 20.0721 102.643 20.0721 101.032 20.0721C100.112 20.0721 99.6559 19.7267 99.4208 18.8149C99.4208 18.8149 99.4208 18.8149 98.6187 16.8739C98.6187 16.8739 98.6187 16.8739 97.0697 16.8739H96.7793V14.4838H97.9272C97.9272 14.4838 97.9272 14.4838 97.0144 11.8589C97.0144 11.5135 96.8969 11.1751 96.7793 10.9471V7.29297Z" fill="#ED1C24"/>
<path fill-rule="evenodd" clip-rule="evenodd" d="M52.5303 23.7227C52.5303 23.7227 52.5303 23.7227 62.5294 23.7227C63.4491 23.7227 64.0231 24.1786 64.0231 25.2078C64.0231 25.2078 64.0231 25.2078 64.0231 33.8769C64.0231 33.9874 64.0231 33.9874 64.1406 33.9874C64.1406 33.9874 64.1406 33.9874 65.0603 33.9874C65.0603 33.9874 65.0603 33.9874 65.0603 36.5018C65.0603 36.5018 65.0603 36.5018 62.647 36.5018C61.6097 36.5018 61.1533 36.0459 61.1533 35.0166C61.1533 35.0166 61.1533 35.0166 61.1533 26.237C61.1533 26.237 61.1533 26.1196 61.0358 26.1196C61.0358 26.1196 61.0358 26.1196 56.4373 26.1196C56.4373 26.1196 56.4373 26.1196 56.4373 36.5018C56.4373 36.5018 56.4373 36.5018 53.6782 36.5018C53.6782 36.5018 53.6782 36.5018 53.6782 26.1196C53.6782 26.1196 53.6782 26.1196 52.5303 26.1196C52.5303 26.1196 52.5303 26.1196 52.5303 23.7227Z" fill="#ED1C24"/>
<path fill-rule="evenodd" clip-rule="evenodd" d="M72.3001 23.4922L72.3554 23.4991V26.1309L72.3001 26.1171C70.2256 26.1171 68.6213 27.8302 68.6213 29.9992C68.6213 32.2787 70.2256 34.1023 72.3001 34.1023L72.3554 34.0885V36.7203L72.3001 36.7272C68.6213 36.7272 65.7446 33.7569 65.7446 29.9992C65.7446 26.345 68.6213 23.4922 72.3001 23.4922Z" fill="#ED1C24"/>
<path fill-rule="evenodd" clip-rule="evenodd" d="M72.3555 23.5L73.6762 23.6243C76.7673 24.2184 78.9662 26.8018 78.9662 30.0001C78.9662 33.2881 76.7673 35.9752 73.6762 36.59L72.3555 36.7212V34.0894L73.8145 33.7855C75.1906 33.1638 76.0965 31.7063 76.0965 30.0001C76.0965 28.3699 75.1906 27.0022 73.8145 26.4219L72.3555 26.1318V23.5Z" fill="#ED1C24"/>
<path fill-rule="evenodd" clip-rule="evenodd" d="M79.5405 23.7227C79.5405 23.7227 79.5405 23.7227 82.0714 23.7227C82.9911 23.7227 83.4475 24.1786 83.4475 25.2078C83.4475 25.2078 83.4475 25.2078 83.4475 33.8769C83.4475 33.9874 83.4475 33.9874 83.5651 33.9874C83.5651 33.9874 83.5651 33.9874 86.8981 33.9874C86.8981 33.9874 86.8981 33.9874 86.8981 23.7227C86.8981 23.7227 86.8981 23.7227 89.6572 23.7227C89.6572 23.7227 89.6572 23.7227 89.6572 33.9874C89.6572 33.9874 89.6572 33.9874 92.9903 33.9874C93.1078 33.9874 93.1078 33.9874 93.1078 33.8769C93.1078 33.8769 93.1078 33.8769 93.1078 25.2078C93.1078 24.1786 93.5642 23.7227 94.4839 23.7227C94.4839 23.7227 94.4839 23.7227 97.0148 23.7227C97.0148 23.7227 97.0148 23.7227 97.0148 26.1196C97.0148 26.1196 97.0148 26.1196 95.9776 26.1196C95.86 26.1196 95.86 26.237 95.86 26.237C95.86 26.237 95.86 26.237 95.86 35.0166C95.86 36.0459 95.4036 36.5018 94.4839 36.5018C94.4839 36.5018 94.4839 36.5018 82.1821 36.5018C81.1517 36.5018 80.6884 36.0459 80.6884 35.0166C80.6884 35.0166 80.6884 35.0166 80.6884 26.237C80.6884 26.237 80.6884 26.1196 80.5778 26.1196C80.5778 26.1196 80.5778 26.1196 79.5405 26.1196C79.5405 26.1196 79.5405 26.1196 79.5405 23.7227Z" fill="#ED1C24"/>
<path fill-rule="evenodd" clip-rule="evenodd" d="M99.1927 23.7227C99.1927 23.7227 99.1927 23.7227 107.816 23.7227C108.853 23.7227 109.199 24.1786 109.199 25.0904C109.199 25.0904 109.199 25.0904 109.199 27.2594H106.668C106.668 27.2594 106.668 27.2594 106.668 26.237C106.668 26.1196 106.668 26.1196 106.55 26.1196C106.55 26.1196 106.55 26.1196 104.946 26.1196C104.946 26.1196 104.946 26.1196 104.946 36.5018C104.946 36.5018 104.946 36.5018 102.18 36.5018C102.18 36.5018 102.18 36.5018 102.18 26.1196C102.18 26.1196 102.18 26.1196 100.576 26.1196C100.458 26.1196 100.458 26.1196 100.458 26.237C100.458 26.237 100.458 26.237 100.458 27.2594C100.458 27.2594 100.458 27.2594 97.9272 27.2594C97.9272 27.2594 97.9272 27.2594 97.9272 25.0904C97.9272 24.1786 98.273 23.7227 99.1927 23.7227Z" fill="#ED1C24"/>
<path fill-rule="evenodd" clip-rule="evenodd" d="M112.76 23.7227C112.76 23.7227 112.76 23.7227 113.922 23.7227H114.136V27.3768C114.019 27.6047 113.908 27.9432 113.908 28.2886C113.908 28.2886 113.908 28.2886 112.988 30.9135C112.988 30.9135 112.988 30.9135 113.956 30.9135H114.136V33.3035H113.514C113.161 33.3035 112.76 33.3035 112.297 33.3035C112.297 33.3035 112.297 33.3035 111.495 35.2446C111.266 36.1564 110.803 36.5018 109.883 36.5018C109.883 36.5018 109.883 36.5018 108.162 36.5018C108.162 36.5018 108.162 36.5018 108.162 33.9874C108.162 33.9874 108.162 33.9874 108.736 33.9874C108.971 33.9874 108.971 33.9874 109.081 33.8769C109.081 33.8769 109.081 33.8769 112.76 23.7227Z" fill="#ED1C24"/>
<path fill-rule="evenodd" clip-rule="evenodd" d="M114.136 23.7227H115.512C115.512 23.7227 115.512 23.7227 119.198 33.8769C119.308 33.9874 119.308 33.9874 119.543 33.9874H120C120 33.9874 120 33.9874 120 36.5018C120 36.5018 120 36.5018 118.388 36.5018C117.469 36.5018 117.012 36.1564 116.777 35.2446C116.777 35.2446 116.777 35.2446 115.975 33.3035C115.975 33.3035 115.975 33.3035 114.426 33.3035H114.136V30.9135H115.284C115.284 30.9135 115.284 30.9135 114.364 28.2886C114.364 27.9432 114.253 27.6047 114.136 27.3768V23.7227Z" fill="#ED1C24"/>
<path fill-rule="evenodd" clip-rule="evenodd" d="M34.8135 12.729C34.9449 12.6876 35.1177 12.7705 35.2906 12.9984C35.2906 12.9984 35.2906 12.9984 43.1046 20.6383C43.561 21.0942 43.561 21.7849 43.1046 22.1234C43.1046 22.1234 43.1046 22.1234 35.2906 29.8807C35.1177 30.1086 34.9449 30.1639 34.8135 30.0948C34.6821 30.0257 34.5991 29.8254 34.5991 29.5353V13.2264C34.5991 12.9432 34.6821 12.7705 34.8135 12.729Z" fill="#ED1C24"/>
<path fill-rule="evenodd" clip-rule="evenodd" d="M21.4467 0H21.9999L22.5324 0.221045C22.5324 0.221045 22.5324 0.221044 30.5746 8.20626C30.9203 8.66217 30.8028 9.00755 30.2288 9.00755C30.2288 9.00755 30.2288 9.00755 26.8958 9.00755C26.3218 9.00755 25.8655 9.46345 25.8655 10.0368C25.8655 10.0368 25.8655 10.0368 25.8655 15.9635C25.8655 16.5369 25.4021 16.9928 24.7106 16.9928C24.7106 16.9928 24.7106 16.9928 18.8536 16.9928C18.2797 16.9928 17.8164 16.5369 17.8164 15.9635C17.8164 15.9635 17.8164 15.9635 17.8164 10.0368C17.8164 9.46345 17.36 9.00755 16.7791 9.00755H13.2179C12.6439 9.00755 12.5263 8.66217 12.8721 8.20626C12.8721 8.20626 12.8721 8.20626 20.9212 0.221045L21.4467 0Z" fill="#ED1C24"/>
<path fill-rule="evenodd" clip-rule="evenodd" d="M8.84778 12.5591C8.993 12.6281 9.0829 12.8285 9.0829 13.1186V29.766C9.0829 30.0561 8.993 30.2288 8.84778 30.2841C8.70948 30.3393 8.50895 30.2841 8.27384 30.1114C8.27384 30.1114 8.27384 30.1114 0.342294 22.1261C-0.114098 21.7877 -0.114098 21.0969 0.342294 20.641C0.342294 20.641 0.342295 20.641 8.27384 12.7732C8.50895 12.5453 8.70948 12.49 8.84778 12.5591Z" fill="#ED1C24"/>
<path fill-rule="evenodd" clip-rule="evenodd" d="M18.854 25.6641C18.854 25.6641 18.854 25.6641 24.7111 25.6641C25.4026 25.6641 25.8659 26.12 25.8659 26.6933C25.8659 26.6933 25.8659 26.6933 25.8659 32.9654C25.8659 33.6493 26.3223 34.1052 26.8962 34.1052H30.0011C30.575 34.1052 30.8032 34.4437 30.3468 34.789C30.3468 34.789 30.3468 34.789 22.5328 42.6568C22.2977 42.8848 22.0142 43.0022 21.7238 43.0022C21.4403 43.0022 21.1498 42.8848 20.9216 42.6568C20.9216 42.6568 20.9216 42.6568 13.1076 34.789C12.6443 34.4437 12.8725 34.1052 13.4465 34.1052C13.4465 34.1052 13.4465 34.1052 16.7795 34.1052C17.3604 34.1052 17.8168 33.6493 17.8168 32.9654C17.8168 32.9654 17.8168 32.9654 17.8168 26.6933C17.8168 26.12 18.2801 25.6641 18.854 25.6641Z" fill="#ED1C24"/>
</svg>
