<svg width="75" height="22" viewBox="0 0 75 22" fill="none" xmlns="http://www.w3.org/2000/svg">
<g clip-path="url(#clip0)">
<path d="M8.46094 10.4188L9.30094 10.2988L8.88094 21.6988L8.64094 21.5188L8.46094 10.4788V10.4188Z" fill="#791915"/>
<path d="M4.31922 2.07812C4.31922 2.13813 3.83922 3.57812 3.83922 3.57812L2.87922 5.79812L1.67922 8.13812L1.19922 8.31812L2.87922 4.23812L4.25922 2.19812L4.31922 2.07812Z" fill="#791915"/>
<path d="M2.88172 9.45859L10.9817 5.31859L8.70172 1.05859L4.26172 2.07859L2.76172 9.51859L2.88172 9.45859Z" fill="#A11D21"/>
<path d="M8.82031 10.3579V21.7579L5.16031 18.6379L2.82031 9.33789H2.88031L7.14031 9.99789L8.82031 10.3579Z" fill="#791915"/>
<path d="M17.5183 3.21875L16.7383 4.77875L17.6383 6.99875L17.9383 7.65875L17.8783 7.59875L17.5183 3.21875Z" fill="#B62325"/>
<path d="M13.1406 1.05859L13.2606 10.0586L15.3606 7.83859L17.5206 3.27859L13.1406 1.05859Z" fill="#DD2A26"/>
<path d="M1.5 16.6568L2.94 9.2168L5.22 18.6968L1.5 16.6568Z" fill="#65180C"/>
<path d="M8.82031 21.7581L13.2603 9.63812L13.3203 9.57812L15.4203 18.2181H15.3603L8.82031 21.7581Z" fill="#791915"/>
<path d="M2.88 9.33789L2.76 10.0579L2.64 10.8379L1.5 16.6579L1.56 16.4779L2.4 12.3979L2.88 9.39789V9.33789Z" fill="#65180C"/>
<path d="M4.25969 2.07812L1.49969 16.6581L0.179688 10.7181L4.25969 2.07812Z" fill="#791915"/>
<path d="M10.8594 5.25727L10.9794 5.19727L11.7594 6.75727V6.81727L11.6994 6.87727L10.8594 5.25727Z" fill="#B62325"/>
<path d="M13.0816 1.05859L11.1016 2.31859L13.2016 3.45859L13.1416 1.11859L13.0816 1.05859Z" fill="#B62325"/>
<path d="M13.1392 3.33805L13.2592 9.75805L10.9192 5.31805L8.69922 0.998047L13.1392 3.33805Z" fill="#ED2F24"/>
<path d="M13.1402 0.998047V3.33805L11.1602 2.25805L13.1402 0.998047Z" fill="#B62325"/>
<path d="M15.3606 7.71805L13.2606 9.75805L13.1406 0.998047L17.5206 3.21805L15.3606 7.71805Z" fill="#DD2A26"/>
<path d="M15.4194 7.6582L15.3594 7.7182L19.6194 12.0382L15.4194 7.6582Z" fill="#B62325"/>
<path d="M11.7603 6.81836L13.2603 9.75836L8.82031 21.7584V10.3584L11.7603 6.81836Z" fill="#8D1A1C"/>
<path d="M2.88 9.39844L5.22 18.6984L1.5 16.6584L2.88 9.39844Z" fill="#65180C"/>
<path d="M8.82031 10.4184V10.2984L11.7603 6.81836L13.3203 9.75836H13.2603L8.82031 10.4184Z" fill="#8D1A1C"/>
<path d="M2.87891 9.39781L10.9189 5.25781L11.7589 6.81781L8.81891 10.3578L2.87891 9.39781Z" fill="#B62325"/>
<path d="M15.4208 7.6582L19.6208 11.9782V12.0382L15.3008 7.8982L15.3608 7.7182L15.4208 7.6582Z" fill="#B62325"/>
<path d="M19.6194 12.0373L16.7994 4.77734L15.3594 7.71734L19.6194 12.0373Z" fill="#ED2F24"/>
<path d="M15.3617 7.71875L15.3017 7.77875L13.2617 9.75875L15.3617 18.2788L19.6217 12.0388L15.3617 7.71875Z" fill="#B62325"/>
<path d="M8.82031 21.7578L15.3603 18.2778L13.2603 9.75781L8.82031 21.7578Z" fill="#791915"/>
<path d="M17.5208 3.21875L17.9408 7.65875L16.8008 4.77875L17.5208 3.21875Z" fill="#B62325"/>
<path d="M1.01969 9.15812L0.179688 4.89812L4.25969 2.07812L1.01969 9.15812Z" fill="#8D1A1C"/>
<path d="M2.87891 9.39844L8.81891 10.3584V21.7584L5.21891 18.6984L2.87891 9.39844Z" fill="#791915"/>
<path d="M8.69891 0.998047L4.25891 2.07805L2.87891 9.39805L10.9189 5.25805L8.69891 0.998047Z" fill="#A11D21"/>
<path d="M28.4984 17.978H27.4784V13.478C27.4784 12.518 26.6984 11.678 25.6784 11.678H24.4184V17.978H23.3984V4.41797H25.7384C27.2984 4.41797 28.5584 5.67797 28.5584 7.23797V8.91797C28.5584 9.87797 28.0784 10.718 27.3584 11.198C28.0784 11.738 28.5584 12.518 28.5584 13.478V17.978H28.4984ZM25.6784 10.658C26.6384 10.658 27.4784 9.87797 27.4784 8.85797V7.17797C27.4784 6.21797 26.6984 5.37797 25.6784 5.37797H24.4184V10.598H25.6784V10.658Z" fill="white"/>
<path d="M31.3169 5.43797V10.658H33.7769V11.738H31.3169V16.958H34.7969V17.978H30.2969V4.41797H34.6169V5.43797H31.3169Z" fill="white"/>
<path d="M41.3997 15.158C41.3997 16.718 40.1397 17.978 38.5797 17.978H36.1797V4.41797H38.5797C40.1397 4.41797 41.3997 5.67797 41.3997 7.23797V15.158ZM40.3797 7.23797C40.3797 6.27797 39.5997 5.43797 38.5797 5.43797H37.1997V16.898H38.5797C39.5397 16.898 40.3797 16.118 40.3797 15.098V7.23797Z" fill="white"/>
<path d="M43.557 9.39773C43.557 9.39773 42.957 8.67773 42.957 7.71773V6.81773C42.957 5.37773 44.097 4.17773 45.597 4.17773C47.037 4.17773 48.237 5.31773 48.237 6.81773V8.49773L47.217 8.61773V6.81773C47.217 5.97773 46.497 5.25773 45.657 5.25773C44.817 5.25773 44.097 5.97773 44.097 6.81773V7.71773C44.097 8.31773 44.457 8.73773 44.457 8.73773L47.637 12.5177C47.637 12.5177 48.237 13.2377 48.237 14.2577V15.5777C48.237 17.0177 47.097 18.2177 45.597 18.2177C44.157 18.2177 42.957 17.0777 42.957 15.5777V13.5977L43.977 13.4777V15.5777C43.977 16.4177 44.697 17.1377 45.537 17.1377C46.377 17.1377 47.097 16.4177 47.097 15.5777V14.2577C47.097 13.6577 46.737 13.2377 46.737 13.2377L43.557 9.39773Z" fill="white"/>
<path d="M54.1192 5.43797H52.1992V17.978H51.1192V5.43797H49.1992V4.41797H53.9992V5.43797H54.1192Z" fill="white"/>
<path d="M55.3789 6.81773C55.3789 5.37773 56.5189 4.17773 58.0189 4.17773C59.4589 4.17773 60.6589 5.31773 60.6589 6.81773V15.5777C60.6589 17.0177 59.5189 18.2177 58.0189 18.2177C56.5789 18.2177 55.3789 17.0777 55.3789 15.5777V6.81773ZM56.4589 15.5777C56.4589 16.4177 57.1789 17.1377 58.0189 17.1377C58.8589 17.1377 59.5789 16.4177 59.5789 15.5777V6.81773C59.5789 5.97773 58.8589 5.25773 58.0189 5.25773C57.1789 5.25773 56.4589 5.97773 56.4589 6.81773V15.5777Z" fill="white"/>
<path d="M62.5195 4.41797H63.7795L66.9595 14.738H67.0195V4.41797H68.0395V17.978H67.0195L63.5995 7.11797V17.978H62.5795V4.41797H62.5195Z" fill="white"/>
<path d="M71.1567 5.43797V10.658H73.6167V11.738H71.1567V16.958H74.6367V17.978H70.1367V4.41797H74.4567V5.43797H71.1567Z" fill="white"/>
</g>
<defs>
<clipPath id="clip0">
<rect width="75" height="21" fill="white" transform="translate(0 0.9375)"/>
</clipPath>
</defs>
</svg>
