<svg width="220" height="220" fill="none" xmlns="http://www.w3.org/2000/svg"><path d="M110 188.13c47.12 0 85.31-2.23 85.31-4.98 0-2.75-38.2-4.99-85.31-4.99-47.12 0-85.31 2.24-85.31 4.99s38.2 4.98 85.31 4.98z" fill="#F5F5F5"/><path d="M57.31 51.8s-2.8-.62-3.19-4.23c-.37-3.35 1.13-4.01 1.13-4.01s-1.9-3.43 1.27-5.4c3.18-1.96 8.05.66 9.93-.23 1.87-.89 3.96-.39 3.36 2.25-.59 2.64-3.37 3.33-3.37 3.33l-6.42-1.13s2.77 7.22 1.13 8.58c-1.64 1.36-3.84.84-3.84.84z" fill="#FEE3CB"/><path d="M68.5 41.17s1.39 5.38 0 6.31c-1.39.93-1.69-5.52-1.69-5.52l1.69-.8z" fill="#FEE3CB"/><path fill-rule="evenodd" clip-rule="evenodd" d="M50.62 61.5c-.2.11-1.22.8-2.54 2.78-1.47 2.2-6.35 11.68-7.08 14.9-.7 3.05.67 6.91 8.76 14.49l1.45 1.32s.96 1.3 3.26.93l2.44.36.9-1.94h17.46s.18-13.02.51-16.11l.12-1.02c.19-1.5.47-3.83.57-6.3l.04.02c4.83 3.24 9.63 5.36 14.2 4.97 3.49-.38 7.42-6.14 9.5-9.62.92-1.53 1.47-2.62 1.47-2.62l2.57-1.47-1.28-3.08-3.85 1.32-1.16 3.73c-4.1 4.76-7.88 5.98-7.88 5.98-1.1-.43-4.89-2.45-9.35-5.75s-7.34-4.1-7.34-4.1-4.87-1.16-8.46-1.21c-2.16-.03-4.32.15-6.45.55 0 0-6.21.33-7.83 1.83a.72.72 0 00-.03.03zm.33 13.29a70.28 70.28 0 00-2.72 4.6c-.04.09-.13.23-.24.4-.35.56-.91 1.46-.83 1.69.68 1.89 4.09 7.25 5.28 9.1l.42.65c.58.08 1.1.18 1.56.28-.9-4.42-2.64-12.88-3.47-16.72z" fill="#DCDFE5"/><path d="M75.27 94.05s-.35 30.72-1.27 38.06c-.92 7.35-3.3 39.1-3.3 39.1l-6.02-1.44s-.44-23.11-1.07-34.6c-.63-11.47-.49-25.07-.49-25.07s-4.4 28.6-6.1 31.35c-1.69 2.76-8.58 18.68-13.02 26.63l-4.9-4.29 9.34-29.69C49.81 129.82 51 98.02 55 94.34l20.27-.29z" fill="#3955A4"/><path d="M43.26 167.15l-1.23 1.87-1.65 2.52-3.37-1.75L38.4 167l1.03-2.07 3.84 2.22zM104.25 62.2l-2.57 1.46s-.55 1.09-1.47 2.62l-2.25-2.12 1.16-3.73 3.85-1.32 1.28 3.08z" fill="#CE7A63"/><path opacity=".2" d="M63.07 110.35c0 .13-.04.26-.07.4l.07-.4zM64.03 104.19s-.11 8.8-1 14.72c.07-4.77.17-9.4.17-9.4l.83-5.32z" fill="#273844"/><path d="M65.77 58.24c.6.46 1.26.8 1.98 1.01 0 0-1.02 1.24-4.31 1-1.28-.1-2.9.6-4.95-.62 0 0 .85-4.88.48-7.76 0 0-3.38-1.45-2.57-3.65.73-2 3 .3 3.42.73-.4-.51-2.84-3.75-1.07-6.4a6.95 6.95 0 015.05-3.06l2.79.75 1.12 2.64s1.5 2.04 1.6 6.1c.11 4.08-2.24 5.52-3.95 6 0 0-.05.44-.05 1.04-.02.8.05 1.84.46 2.22z" fill="#CE7A63"/><path d="M66.66 49.3l-.44-3.28 1.85 2.59a1.99 1.99 0 01-1.41.7z" fill="#BA4D3C"/><path d="M63.44 49.51a2.15 2.15 0 002.24.77M62.6 44.97s.53-1.15 1.6-.98M67.36 43.56a2.05 2.05 0 011.76.63" stroke="#263238" stroke-linecap="round" stroke-linejoin="round"/><path d="M64.57 46.46c0 .33-.16.58-.36.58-.2 0-.36-.25-.36-.58 0-.32.16-.57.36-.57.2 0 .36.26.36.57zM68.23 46.23c0 .31-.16.57-.36.57-.2 0-.36-.26-.36-.57 0-.32.16-.58.36-.58.2 0 .36.26.36.58z" fill="#263238"/><path fill-rule="evenodd" clip-rule="evenodd" d="M64.96 61.31l-2.82.43v2.55l1.44 2.2h.76l1.31-2.45-.69-2.73zM62.14 79.4l1.44-12.91h.76l2.34 12.85-1.9 2.6-2.64-2.54z" fill="#273844"/><path d="M63.44 60.24l1.43 3.77s3.7-1.84 4.24-4.93l-2.64-.9c-.92.8-1.94 1.5-3.03 2.06z" fill="#fff"/><path d="M58.74 57.93s2.56 1.34 4.7 2.31l-.84 3.77s-4.23-2.53-5.66-4.51l1.8-1.57z" fill="#fff"/><path opacity=".2" d="M65.34 54.97s-.05.44-.05 1.03a8.92 8.92 0 01-2.09-.8c.72.1 1.46.02 2.14-.23z" fill="#273844"/><path d="M59.84 48.95c.48-1.9.3-3.92-.48-5.72 0 0 5.02 1.44 5.03-3.13 0 0-6.7 1.07-7.04 3.45-.34 2.38 1.92 4.76 2.49 5.4z" fill="#FEE3CB"/><path d="M64.31 40.77s1.92 2.73 3.57 2.17v-3.96h-5.72l-3.02 1.8 2.09 2.16 1.56-1.29 1.52-.88z" fill="#FEE3CB"/><path d="M70.3 176.17l-4.3-.22-.1-3.26-.08-2.38 3.48-.34.68.03.15 2.94.17 3.23z" fill="#CE7A63"/><path opacity=".2" d="M70.13 172.94l-4.23-.25-.08-2.38 3.48-.34.68.03.15 2.94z" fill="#273844"/><path d="M63.49 171.88l8.26-.2.46-2.7h-8.53l-.2 2.9z" fill="#F4F8F9"/><path d="M71.22 176.35s1.44-4.24 2.56-3.82c1.13.42-2.56 3.82-2.56 3.82zM71.47 176.35s2.17-2.07 3.05-1.26c.87.8-3.05 1.26-3.05 1.26z" stroke="#273844" stroke-width=".25" stroke-miterlimit="10"/><path opacity=".2" d="M43.26 167.15l-1.23 1.87L38.4 167l1.03-2.07 3.84 2.22z" fill="#273844"/><path d="M37.58 165.46l6.31 3.34 1.5-1.83-6.44-3.62-1.37 2.1z" fill="#F4F8F9"/><path d="M41.6 172.66s1.79-2.23 2.51-1.7c.73.53-2.5 1.7-2.5 1.7zM41.93 172.66s3.08-.72 3.21.28c.13 1-3.21-.28-3.21-.28z" stroke="#273844" stroke-width=".25" stroke-miterlimit="10"/><path d="M41.23 170.28l-3.32-1.86a1 1 0 00-1.35.38l-1.5 2.64a1 1 0 00.39 1.37l9.4 5.28a1 1 0 001.47-1.07 1 1 0 00-.35-.59c-1.22-.97-3.7-3.2-4.26-5.52a1 1 0 00-.48-.63zM69.9 174.52h-4.4a1.16 1.16 0 00-1.15 1.16v3.52a1.16 1.16 0 001.15 1.16h12.48a1.15 1.15 0 001.07-.72 1.16 1.16 0 00-.88-1.58c-1.78-.3-5.55-1.15-7.42-3.16a1.16 1.16 0 00-.85-.38z" fill="#263238"/><path d="M58.29 93.33l-1.38 2.95-2.44-.36c-2.3.37-3.26-.93-3.26-.93l-1.45-1.32 2.69-3.08.41.64c4.41.63 5.43 2.1 5.43 2.1z" fill="#CE7A63"/><path d="M97.96 63.96l-.86 1.14 2.5 2.18.74-1-2.38-2.32zM49.65 93.79l2.88-3.37-.97-1.24-3.01 3.62 1.1.99z" fill="#fff"/><path d="M104.98 43.01a6.27 6.27 0 00.64 5.35c1.7 2.6 1.32-5.96 1.32-5.96l-1.96.61z" fill="#263238"/><path d="M108.48 62.41S97.92 77.19 95.85 76.57c-2.06-.62-6.82-9.84-6.82-9.84l-.27-3.65-3.12-4.29-3.96 3.13 1.92 3.57s.57 1.85 2.26 2.37c0 0 3.89 11.93 8.8 14.16 4.92 2.24 11.74-11.97 11.74-11.97l2.08-7.64z" fill="#FFB573"/><path d="M131.09 170.14l-5.46 2.08c-7.04-15.47-12.76-60.56-12.76-60.56l-.42 3.3c-.81 6.73-2.55 21.86-2.2 27.28.56 9.11-1.05 31.63-1.05 31.63l-6.6.78s.23-22.26-.71-34.59c-.95-12.33 1.94-43.98 1.94-43.98l18.2-.83c3.12 3.59 3.9 47.78 4.69 51.84.78 4.06 4.37 23.05 4.37 23.05z" fill="url(#paint0_linear)"/><path d="M102.03 64.61a1.84 1.84 0 01.79-1.2c1.47-.98 5.25-3.43 6.27-3.51 1.27-.1 7.95-1.67 10.59 0 2.64 1.66 4.32 6.57 4.32 6.57s-.2 22.65-1.38 30l-18.82-.38s-2.97-24.84-1.77-31.48z" fill="#3955A4"/><path d="M123.12 72.84l2.94 5.4s.39 12.16-.59 15.3L124 96.48v4.72l3.52.49.98-3.73s.58-2.74 0-3.92c0 0 4.12-9.41 2.64-17.55 0 0-7.43-16.39-12-16.84-4.55-.46 3.98 13.2 3.98 13.2z" fill="#FFB573"/><path d="M117.11 59.67s-2.9 2.8-5.56 2.73c-2.65-.08-1.92-2.34-1.92-2.34 1.36-.26 1.8-1.62 1.93-2.8.06-.58.06-1.17 0-1.75 0 0-3.16 0-4.94-3.87-1.78-3.86 0-8.95 0-8.95s6.72-1.7 9.73-.85c3 .85.62 8.41.62 8.41-.78 4.25.14 9.42.14 9.42z" fill="#FFB573"/><path d="M111.22 46.71c0 .3-.17.55-.37.55-.2 0-.37-.24-.37-.55 0-.3.17-.55.37-.55.2 0 .37.25.37.55zM107.47 47.08c0 .3-.16.55-.36.55-.2 0-.38-.25-.38-.55 0-.3.17-.55.38-.55.2 0 .36.23.36.55z" fill="#263238"/><path d="M108.71 47.34v2.96a1.29 1.29 0 01-1.37-.4l1.37-2.56z" fill="#ED893E"/><path d="M109.97 50.81s1.56 0 2.13-1.29M110.48 44.6s1.37-.12 1.76.73M105.82 45.63a1.7 1.7 0 011.29-1.04" stroke="#263238" stroke-linecap="round" stroke-linejoin="round"/><path opacity=".2" d="M113.96 55.04a7.35 7.35 0 01-2.4 2.23c.07-.59.07-1.18 0-1.76.83 0 1.64-.16 2.4-.47z" fill="#273844"/><path fill-rule="evenodd" clip-rule="evenodd" d="M111.54 62.42l.01-.02.01.01h-.02zm-3.06-2.35a8.68 8.68 0 001.86 4.53l-.2.95.9 1.65-1.02 13.22 1.82 2.22 1.69-2.35-1.54-13.1.83-1.52-.13-.96c.8-.2 4.02-1.25 5.5-5.37l-1.27-1.01a24.3 24.3 0 01-5.37 4.07c-1-1.3-1.07-3.6-1.07-3.6l-2 1.27z" fill="#fff"/><path d="M118.33 48.14s-3.86.46-4.5-5.12c0 0-6.79 2.03-9.24-.05-2.45-2.09-.46-4.8-.46-4.8.21.54.46 1.04.75 1.53v-1.76c.42.54.87 1.05 1.36 1.52 1.98.32 4-.07 5.72-1.1 2.95-1.77 6.69 1.57 6 4.15.02.01 3.34 2.6.37 5.63z" fill="#263238"/><path d="M115.68 48.3s1.04-3.69 2.75-2.39c1.7 1.3-.73 4.92-1.92 4.72-1.19-.21-.83-2.34-.83-2.34z" fill="#FFB573"/><path d="M85.74 68.64l3.72-2.05s3.99 7.7 6.3 8.68c0 0 4.7-4.75 6.25-10.7l2.11 9.91s-3.65 7.7-8.26 7.82c-4.6.1-8.39-8.67-10.12-13.66zM120.48 69.78l5.6 8.98-.94 13.92 4.21.82s3.24-9.68 1.8-17c-1.04-5.33-4.33-12.07-8.16-15.3a8.18 8.18 0 00-4.8-1.84s-1.03 2.39-.97 4.4c.05 2.02 3.26 6.02 3.26 6.02z" fill="#3955A4"/><path opacity=".2" d="M123.85 75.18l-3.37-5.4c.29.46 3.37 9.8 3.37 9.8v-4.4zM112.87 111.66l-.42 3.3-.88-10.7 1.3 7.4z" fill="#273844"/><path d="M128.82 176.81l3.41-1.59-.98-2.68-.72-1.96-2.93.86-.55.25.84 2.44.93 2.68z" fill="#FFB573"/><path opacity=".2" d="M127.89 174.13l3.36-1.59-.72-1.96-2.93.86-.55.25.84 2.44z" fill="#273844"/><path d="M128.12 177.26s-2.56-2.98-3.33-2.27c-.78.71 3.33 2.27 3.33 2.27zM127.93 177.32s-2.45-.97-2.9-.03c-.45.95 2.9.03 2.9.03z" stroke="#3955A4" stroke-width=".25" stroke-miterlimit="10"/><path d="M128.6 175.34l3.57-1.44a1.02 1.02 0 011.32.56l1.15 2.86a1.01 1.01 0 01-.56 1.32l-10.14 4.1a1 1 0 01-1.1-.23 1.02 1.02 0 01.2-1.58c1.33-.82 4.13-2.75 4.99-5a.99.99 0 01.57-.59z" fill="#3955A4"/><path d="M103.87 180.18l3.76-.1.17-2.85.12-2.08-3.03-.38h-.6l-.2 2.58-.22 2.83z" fill="#FFB573"/><path opacity=".2" d="M104.09 177.35l3.71-.12.12-2.08-3.03-.38h-.6l-.2 2.58z" fill="#273844"/><path d="M103.05 180.31s-1.16-3.75-2.15-3.4c-.99.34 2.15 3.4 2.15 3.4zM102.84 180.3s-1.86-1.86-2.64-1.17c-.79.69 2.64 1.18 2.64 1.18z" stroke="#3955A4" stroke-width=".25" stroke-miterlimit="10"/><path d="M104.25 178.74l3.85.1a1.04 1.04 0 01.72.32 1 1 0 01.27.72l-.08 3.09a1.02 1.02 0 01-1.04.98l-10.94-.28a1.01 1.01 0 01-.72-1.7c.16-.18.38-.3.62-.32 1.56-.22 4.9-.89 6.58-2.6a1.01 1.01 0 01.74-.3z" fill="#3955A4"/><path d="M125.51 173.75l-1.88-3.29 8.21-3.04.58 4.36-6.9 1.97zM101.69 171.75V176h8.62l.33-4.25h-8.95z" fill="#DCDFE5"/><path d="M147.7 67.86s-2.5 9.85-5.14 12.9c0 0-4.8-4.78-6.25-8.95 0 0-.13-1.94-1.53-2.77l-2.08-2.85-3.47 1.25.83 2.78 3.62 2.01s4.58 12.63 8.74 12.56c4.16-.07 6.04-5.62 6.04-5.62l2.29-11.88-3.05.57z" fill="#FF8B7B"/><path d="M133.76 73.41l2.57-1.6s4.37 7.15 6.42 8.58c0 0 2.55-4.64 3.42-8.47a62.8 62.8 0 011.68-6.16l2.92 4.22s-1.92 13.44-5.88 14.8c-3.96 1.37-6.2-2.5-7.1-4.02-.9-1.52-4.03-7.35-4.03-7.35z" fill="url(#paint1_linear)"/><path d="M155.78 170.14c0 .17 2.64 3.9 2.64 3.9l2.77-3.57-2.98-4.22-2.43 3.9z" fill="#FF8B7B"/><path d="M157.18 172.61l2.86-3.1a1.12 1.12 0 011.57-.06l2.48 2.3a1.1 1.1 0 01.06 1.57l-8.13 8.8a1.12 1.12 0 01-1.57.06 1.11 1.11 0 01-.17-1.43c.95-1.45 2.81-4.66 2.6-7.3a1.1 1.1 0 01.3-.84z" fill="#273844"/><path d="M149.85 168.41l8.03-7.04 2.95 6.13-5.48 4.77-5.5-3.86z" fill="#E9EBEF"/><path d="M146.92 88.64s-8.65 37.78-8.8 46.85c-.15 9.06 7.76 24.78 12.76 32.14l6.73-5.35-9.75-23.76 4.52-29.59 5.23 59.95 6.46.82s.82-22.66 0-30.9c-.82-8.25 3.75-36.28.37-47l-17.52-3.16z" fill="#DCDFE5"/><path d="M164.46 91.8s1.47-14.06 4.3-19.56l1.1-6.37s-2.04-2.51-6.68-2.44c-4.64.08-6.68-.44-6.68-.44s-6.06-.4-7.48.93c-1.42 1.34-1.5 7.4-1.73 10.3-.24 2.91-.8 16.28-.8 16.28l17.97 1.3z" fill="#F4F8F9"/><path d="M164.05 62.97s-6.97 8.16-5.65 28.83l8.15 1.4-1.11-8.57 5.22-15.67s1.1-4.88-6.61-6z" fill="url(#paint2_linear)"/><path d="M156.1 62.97s-7.5 5.48-8.08 26.52l-3.93.1 3.22-16.82a7.74 7.74 0 01-.21-4.74c.44-1.51.91-3.29 1.92-4.12 1.61-1.34 4.18-1.22 7.08-.94z" fill="url(#paint3_linear)"/><path d="M165.3 67.9s4.67 11.35 3.52 15.94c0 0-8.06-2.07-11.78-5.68 0 0-1.17-1.97-3.08-2.11l-3.68-1.89-2.98 3.13 2.33 2.48 4.84.21s11.44 10.85 15.78 8.59c2.03-1.06 2.9-3.12 3.25-5.01.33-1.86.23-3.77-.3-5.58l-3.1-11.1-4.8 1.03z" fill="#FF8B7B"/><path d="M154.18 81.07l3.18-3.7s7.08 5.45 11.44 6.47c-.38-3.73-.97-7.43-1.76-11.1l-2.2-3.78.2-1.6 5.34-.69s4.84 13.53 3.55 18.4c-1.28 4.88-4.04 5.37-8.69 3.57-4.64-1.8-11.06-7.57-11.06-7.57z" fill="url(#paint4_linear)"/><path d="M164.16 179.5h-4.43l-.26-3.69-.12-1.84-.08-1.06 4.88.4v2.5l.01 3.7z" fill="#FF8B7B"/><path d="M159.54 177.85h4.22a1.12 1.12 0 011.11 1.12v3.38a1.12 1.12 0 01-1.11 1.1h-11.99a1.11 1.11 0 01-.18-2.2c1.71-.28 5.34-1.1 7.13-3.04a1.12 1.12 0 01.82-.36z" fill="#273844"/><path opacity=".3" d="M164.05 62.97a17.48 17.48 0 00-2.02 3.43 38.99 38.99 0 00-3.14 10.96l5.16-4.18-1.12-3.6 6.28-4.55s-1.65-1.67-5.16-2.06zM150.01 74.52s2.49-8.87 6.1-11.55c0 0-4.28-.6-6.25.4l.44 6.22-1.83.57 1.54 4.36z" fill="#fff"/><path d="M169.3 48.29c.84 2.12-.07 4.5.02 6.77.03 1.04.28 2.06.3 3.08.03 1.02-.2 2.15-.97 2.86-.68.64-1.67.84-2.59 1-1.44.27-3 .52-4.3-.17-.3-.16-.57-.36-.88-.5a4.15 4.15 0 00-2-.17c-.66.11-1.34.08-1.99-.1-2.06-.71-.64-3.54-.29-5l1.62-6.66c2.22-.44 4.43-1.06 6.65-1.5.73-.21 1.5-.25 2.24-.1.7.2 1.49.71 2.18.49z" fill="#FEE3CB"/><path d="M169.35 52.66a2.57 2.57 0 01-1.05 1.41c-.51.27-.59.76-.55 1.32.1 1.32.81 3.19-1.65 4.24a2.1 2.1 0 01-2.28-.25c-1.73-1.37-2.28-5.2-2.28-5.2l-3.14-9.06a.2.2 0 01.04-.06l.03-.04a4.12 4.12 0 01.72-.81c1.14-1.07 3.51-2.43 6.91-.16 3.74 2.5 4.06 6.45 3.25 8.61z" fill="#FEE3CB"/><path d="M169.53 53.43c.04 1.05-.93 1.65-1.76 1.98-.4.16-.82.27-1.25.34a7.4 7.4 0 01-2.45 2.2c-.13.48-.2.97-.23 1.46-.04 1.2.03 2.4.23 3.57l-1.14 1.76c-4.73 2.17-6.41-1.76-6.41-1.76 1.73-.18 2.28-1.64 2.45-2.86.06-.56.06-1.13 0-1.7a5.25 5.25 0 01-3.08-3.67c-.56-2.36-.1-4.59.88-6.78.4-.87.86-1.7 1.41-2.5l.22-.35a.2.2 0 01.04-.05.63.63 0 01.07-.1v-.03c.08-.1.19-.24.34-.4h.03l5.93-.77 2.58 2.06.9 5.1-1.32 1.57-.55.66-.13.15.17-.14c1.04-.88 2.38-1.32 2.87-.49.13.23.2.49.2.75z" fill="#FF8B7B"/><path d="M161.51 49.62c-.07.31-.3.53-.5.48-.2-.05-.31-.34-.24-.66.08-.32.3-.53.51-.48.2.05.31.34.23.66zM158.14 48.7c-.08.32-.3.54-.51.5-.21-.06-.32-.36-.24-.67.07-.31.3-.53.5-.48.22.05.32.35.25.66z" fill="#263238"/><path d="M161.34 48.98l-.82-.44s.14.83.81.44zM157.96 48.1l-.81-.44s.15.83.81.44z" fill="#263238"/><path d="M158.96 49.08l-.77 2.79a.82.82 0 01-1.03-.57l1.8-2.22z" fill="#FF5652"/><path d="M159.13 53.8s1.92.29 2.47-1.32M161.54 47.44a1.35 1.35 0 011.86.63M158.86 46.28a1.23 1.23 0 00-1.78.48" stroke="#263238" stroke-linecap="round" stroke-linejoin="round"/><path d="M168.76 51l-2.28 2.15h-.04c-3.8-1.23-3.04-8.27-3.04-8.27-1.08.69-4.9.3-5 .23.2-.3.44-.59.7-.85.18-.16.7-.11.93-.13l1.4-.1 2.84-.24c.09 0 .48-.1.55-.04l2.58 2.06 1.36 5.19z" fill="#FEE3CB"/><path opacity=".2" d="M160.9 58.73a4.04 4.04 0 01-1.95 1.38c.07-.56.07-1.13 0-1.69.63.2 1.3.3 1.96.3z" fill="#273844"/><path opacity=".3" d="M151.44 115.27l.48-12.56.49 6.21-.97 6.35z" fill="#273844"/><path opacity=".1" d="M164.16 173.74v2.07h-4.69l-.12-1.84 4.8-.23z" fill="#273844"/><path d="M156.67 168.71l1.14 6.36h6.96l.96-6.66-9.06.3z" fill="#E9EBEF"/><defs><linearGradient id="paint0_linear" x1="112.59" y1="95.2" x2="139.02" y2="171.61" gradientUnits="userSpaceOnUse"><stop stop-color="#37489A"/><stop offset=".32" stop-color="#4B5BA9"/><stop offset=".51" stop-color="#9177B6"/><stop offset=".83" stop-color="#B6ADD8"/><stop offset=".95" stop-color="#BADAF3"/><stop offset="1" stop-color="#D9ECFA"/></linearGradient><linearGradient id="paint1_linear" x1="140.06" y1="65.75" x2="143.02" y2="86.12" gradientUnits="userSpaceOnUse"><stop stop-color="#37489A"/><stop offset=".32" stop-color="#4B5BA9"/><stop offset=".51" stop-color="#9177B6"/><stop offset=".83" stop-color="#B6ADD8"/><stop offset=".95" stop-color="#BADAF3"/><stop offset="1" stop-color="#D9ECFA"/></linearGradient><linearGradient id="paint2_linear" x1="162.86" y1="62.95" x2="172.07" y2="92.66" gradientUnits="userSpaceOnUse"><stop stop-color="#37489A"/><stop offset=".32" stop-color="#4B5BA9"/><stop offset=".51" stop-color="#9177B6"/><stop offset=".83" stop-color="#B6ADD8"/><stop offset=".95" stop-color="#BADAF3"/><stop offset="1" stop-color="#D9ECFA"/></linearGradient><linearGradient id="paint3_linear" x1="148.54" y1="62.77" x2="156.17" y2="89.48" gradientUnits="userSpaceOnUse"><stop stop-color="#37489A"/><stop offset=".32" stop-color="#4B5BA9"/><stop offset=".51" stop-color="#9177B6"/><stop offset=".83" stop-color="#B6ADD8"/><stop offset=".95" stop-color="#BADAF3"/><stop offset="1" stop-color="#D9ECFA"/></linearGradient><linearGradient id="paint4_linear" x1="161.58" y1="66.66" x2="165.13" y2="90.84" gradientUnits="userSpaceOnUse"><stop stop-color="#37489A"/><stop offset=".32" stop-color="#4B5BA9"/><stop offset=".51" stop-color="#9177B6"/><stop offset=".83" stop-color="#B6ADD8"/><stop offset=".95" stop-color="#BADAF3"/><stop offset="1" stop-color="#D9ECFA"/></linearGradient></defs></svg>