<svg width="220" height="220" fill="none" xmlns="http://www.w3.org/2000/svg"><path d="M110 188.13c47.12 0 85.31-2.23 85.31-4.98 0-2.75-38.2-4.99-85.31-4.99-47.12 0-85.31 2.24-85.31 4.99s38.2 4.98 85.31 4.98z" fill="#F5F5F5"/><path d="M160.67 71.28c.61 2.06 3.79 5.93 4.04 8.74.25 2.81-5.17 7.3-5.17 7.3s-4.04-13.53-1.51-15.1c2.53-1.59 2.64-.94 2.64-.94z" fill="#FEE3CB"/><path d="M149.54 85.9a42.82 42.82 0 01-5.9 4.08 34.19 34.19 0 01-5.73 2.7l-.88.3c-.75.22-1.54.27-2.31.17-.65-.07-1.29-.2-1.92-.37a25.35 25.35 0 01-3.44-1.22 45.8 45.8 0 01-6.24-3.32l.82-1.53c1.04.44 2.1.88 3.16 1.26s2.12.79 3.19 1.12c1.04.34 2.1.61 3.17.82.49.1.99.16 1.49.18.37.03.75 0 1.1-.11a28.42 28.42 0 004.4-2.12c.47-.28.95-.55 1.42-.84a60.83 60.83 0 005.43-3.81l2.24 2.7z" fill="#FFC3BD"/><path d="M151.87 81.22c-1.1-.86-5.61 1.94-6.98 3.1l1 6.04s6.5-2.72 6.88-4.57c.4-1.94-.09-3.92-.9-4.57z" fill="#DCDFE5"/><path d="M167.05 99.5l-13.7 2.67c-7.08-19.17-5.54-19.8-5.54-19.8 1-.55 2.02-1.03 3.08-1.45l.18-.07c.88-.33 1.06-.37 2.23-.72 2.02-.48 3.9-.88 6.22-1.2l.44-.07 1.25-.14.8-.06.88-.05c1.5-.07 2.59-.05 2.59-.05-.42 11.97.26 15.4 1.57 20.94z" fill="#DCDFE5"/><path d="M156.32 72.66c-.88 1.45 2.3 2.13 4.2.64 1.5-1.2 1.15-3.96-.14-4.6-1.3-.65-4.06 3.96-4.06 3.96z" fill="#3955A4"/><path d="M169.66 178.85l-3.43.25-1.26-7.89 3.43-.25 1.25 7.89zM193.9 167.82l-2.9 1.83-5.19-6.14 2.91-1.84 5.18 6.15z" fill="#FFC3BD"/><path d="M164.97 171.21l.7 4.38 3.38-.56-.64-4.07-3.44.25zM188.72 161.68l-2.9 1.83 2.14 2.54 2.97-1.75-2.2-2.62z" fill="#CF6F64"/><path d="M153.56 102.17s-.05 27.2 2.17 37.44c2.32 10.66 9.13 34.9 9.13 34.9l4.93-.63s-3.86-24.5-5.5-35.09c-1.8-11.54-.7-38.58-.7-38.58l-10.03 1.96z" fill="#C3C6C7"/><path opacity=".5" d="M163.29 112.27l-2.42-2.41c.1 10.45.68 15.61 2.69 21.23-.32-5.94-.35-12.97-.27-18.82z" fill="#273844"/><path d="M156.97 101.46s7.37 22.48 11.03 35.43c3.87 13.67 18.68 28.77 18.68 28.77l4.25-2.45s-10.12-14.34-13.84-27.1c-7.57-25.87-4.46-31.35-10.04-36.61l-10.08 1.96z" fill="#C3C6C7"/><path d="M151.17 64.72c1.96.66 3.74 5.53 3.82 7.44.07 1.92-5.69 4.57-5.69 4.57s-2.54-6.16-1.83-10.12c.3-1.72 3.7-1.89 3.7-1.89z" fill="#FEE3CB"/><path d="M124.23 86.87l-2.32-2.54-.77 3.18s1.66 1.46 3 .96l.1-1.6zM119.55 83.6l-1.63 1.3 3.22 2.61.77-3.18-2.36-.72z" fill="#FFC3BD"/><path d="M190.08 169l2.72-2.75a.28.28 0 01.36-.02l2.48 1.84a.54.54 0 01.2.4c.01.07 0 .15-.03.23a.56.56 0 01-.12.19c-.97.94-1.48 1.34-2.68 2.55-.73.74-1.73 1.9-2.75 2.92-1.02 1.03-2.08.07-1.76-.44 1.48-2.32 1.22-3.18 1.32-4.36.02-.22.1-.41.26-.56zM166 178.6h3.86a.3.3 0 01.29.25l.6 3.05a.51.51 0 01-.1.43.52.52 0 01-.41.18c-1.35-.02-2-.1-3.7-.1-1.04 0-3.2.1-4.64.1-1.44 0-1.6-1.42-1-1.55 2.63-.58 3.67-1.37 4.54-2.14.15-.13.35-.2.56-.21z" fill="#273844"/><path d="M165.92 85.5l-2.11 1.25 2.44 9.17c-.54-2.78-.3-5.83-.33-10.42z" fill="#273844" opacity=".27"/><path d="M153.92 71.19c1.5 1.25 3.68 3.08 6.24.94 2.2-1.84 3.74-6.66-.2-6.84-2.07-.1-6.04 5.9-6.04 5.9z" fill="#FEE3CB"/><path d="M157.54 72.05c0 2.07.32 5.82 1.98 6.88 0 0-.15 2.14-3.87 2.86-4.09.8-2.35-1.65-2.35-1.65 2.13-.97 1.76-2.61 1.06-4.09l3.18-4z" fill="#FFC3BD"/><path d="M156.24 73.68l-1.88 2.37c.17.34.3.7.4 1.06.83-.29 1.82-1.45 1.74-2.36a3 3 0 00-.26-1.07z" fill="#CF6F64"/><path d="M157.74 67.28c.44 3.38.7 4.8-.65 6.85-2.03 3.08-6.28 2.88-7.73-.3-1.32-2.87-1.82-7.92 1.2-9.88a4.65 4.65 0 017.18 3.33z" fill="#FFC3BD"/><path d="M151.86 61.35c-2.29 1.62 2.3 2.1 2.3 4.46 0 .97 1.6 4.05 3.88 3.88l2.2-3.91c2.3-3.74-3.16-8.14-8.38-4.43z" fill="#FEE3CB"/><path d="M151.86 61.35c-4.02-.21-5.78 3-5.32 5.87 2.81-.7 5.72-.93 8.6-.68 5.52.56-3.28-5.2-3.28-5.2z" fill="#FEE3CB"/><path d="M158.84 70.2c.06.65-.15 1.3-.58 1.8-.56.67-1.32.28-1.58-.5-.22-.72-.2-1.92.57-2.3a1.12 1.12 0 011.59 1z" fill="#FFC3BD"/><path d="M152.85 69.2c.05.27-.05.52-.22.55-.18.04-.37-.16-.42-.44-.05-.28.05-.52.22-.56.18-.03.37.18.42.45zM149.78 69.8c.05.27-.05.52-.23.56-.17.03-.36-.16-.42-.44-.05-.29.05-.53.23-.56.17-.03.36.16.42.44z" fill="#263238"/><path d="M149.44 69.37l-.69-.06s.44.44.7.06z" fill="#263238"/><path d="M150.68 70.11a7.5 7.5 0 01-.63 1.92 1.2 1.2 0 001 0l-.37-1.92z" fill="#DF5753"/><path d="M152.2 72.91c-.01 0-.03 0-.05-.02a.08.08 0 01-.02-.04v-.03-.03a.08.08 0 01.06-.04 2.2 2.2 0 001.61-1.21l.03-.02a.08.08 0 01.06 0l.03.02.01.03a.08.08 0 010 .06 2.32 2.32 0 01-1.7 1.28h-.02zM153.56 68.03a.17.17 0 01-.11-.04 1.3 1.3 0 00-1.13-.34.17.17 0 01-.2-.12c-.02-.05-.01-.1.01-.13a.17.17 0 01.11-.08 1.63 1.63 0 011.43.4.16.16 0 010 .24.15.15 0 01-.11.07zM148.07 68.64h-.06a.16.16 0 01-.09-.22 1.6 1.6 0 011.12-.98.16.16 0 01.16.08c.02.01.02.03.03.06v.06l-.03.06a.16.16 0 01-.1.07 1.33 1.33 0 00-.88.78.17.17 0 01-.06.07.17.17 0 01-.09.02z" fill="#263238"/><path d="M189.06 170.6a.47.47 0 01-.38-.22.27.27 0 01-.05-.27c.16-.42 1.37-.68 1.5-.71a.08.08 0 01.1.03.08.08 0 010 .1c-.25.38-.71 1.04-1.15 1.06h-.02zm.92-1c-.48.13-1.11.35-1.2.57a.11.11 0 00.03.11.3.3 0 00.27.15c.23-.01.56-.32.9-.83z" fill="#273844"/><path d="M189.78 169.6c-.44 0-.99-.1-1.15-.34a.29.29 0 01.03-.36.44.44 0 01.32-.17h.03c.5 0 1.18.67 1.2.7.01 0 .02.01.02.03v.04a.08.08 0 01-.05.06c-.13.03-.27.04-.4.04zm-.77-.7H189a.26.26 0 00-.2.1c-.06.08-.05.13-.03.16.14.2.81.32 1.22.27-.26-.27-.6-.46-.97-.54zM164.74 179.21c-.3.03-.6-.05-.84-.2a.44.44 0 01-.17-.4.26.26 0 01.12-.22c.4-.24 1.82.47 1.98.55.02 0 .03.02.04.03v.05l-.01.04a5.92 5.92 0 01-1.12.15zm-.66-.71a.3.3 0 00-.15.03.08.08 0 00-.04.08.31.31 0 00.11.27c.22.19.79.22 1.54.1-.46-.24-.95-.4-1.45-.48z" fill="#273844"/><path d="M165.8 179.08h-.03c-.44-.19-1.3-.94-1.23-1.32 0-.09.08-.2.3-.22h.06c.77 0 .97 1.4.98 1.46l-.01.04-.03.04a.1.1 0 01-.04 0zm-.88-1.39h-.05c-.14 0-.15.07-.15.08-.04.24.54.82.98 1.08-.08-.34-.3-1.15-.8-1.15l.02-.01z" fill="#273844"/><path d="M152.52 68.77l-.7-.06s.44.44.7.06z" fill="#263238"/><path d="M155.54 84.72c-7.36 1.64-5.09-2.81-4.65-3.8l.19-.07c.88-.32 1.05-.37 2.22-.7a44.3 44.3 0 016.23-1.22l.44-.06c.44-.06.84-.1 1.24-.14l.8-.06.89-.06c.15.7.51 4.36-7.36 6.1z" fill="#FFC3BD"/><path d="M167.1 98.65l.85 1.11c.07.08-.02.2-.18.23l-14.37 2.8c-.13.03-.24 0-.26-.09l-.37-1.2c0-.08.07-.18.2-.2l13.88-2.7a.25.25 0 01.24.05z" fill="#3955A4"/><path d="M165.53 100.57l.38-.07c.07 0 .12-.07.1-.11l-.48-1.56c0-.05-.09-.07-.16-.06l-.37.07c-.07 0-.12.07-.11.11l.48 1.56c.02.05.1.07.16.06z" fill="#407BFF"/><path d="M157.12 105.76l-2.87-1.07.44 2.73s2.08.75 3.14-.21l-.72-1.45z" fill="#FFC3BD"/><path d="M151.52 105.42l-.68 1.78 3.85.22-.44-2.73-2.73.73z" fill="#FFC3BD"/><path d="M154.47 102.72l.37-.07c.07 0 .12-.06.1-.1l-.48-1.57c0-.04-.08-.07-.16-.05l-.37.07c-.08 0-.12.06-.1.1l.48 1.57c.01.04.08.07.16.05zM160 101.64l.37-.07c.08 0 .12-.06.11-.11L160 99.9c0-.05-.1-.07-.17-.06l-.37.08c-.07 0-.12.06-.1.1l.48 1.57.07.05h.1z" fill="#fff"/><path d="M158.44 77.18c.3-.11.7.99.6 1.13-.22.32-4.33 1.44-4.52.81 0-.34.04-.68.16-1 .12-.21 1.03.17 3.75-.94z" fill="#DCDFE5"/><path d="M170.68 173.86l-6.73.87-.44-1.88 7-1.48.17 2.49zM191.29 163.06l-4.96 2.86-1.68-1.43 5.43-3.67 1.2 2.24z" fill="#C3C6C7"/><path d="M168.01 83.22a43.04 43.04 0 01.73 7.13 35.22 35.22 0 01-.4 6.32l-.16.94a5.86 5.86 0 01-.98 2.1c-.37.53-.8 1.04-1.24 1.5-.85.88-1.77 1.68-2.73 2.42a45.53 45.53 0 01-5.93 3.87l-.94-1.46c.88-.7 1.76-1.42 2.64-2.16.88-.73 1.72-1.47 2.52-2.25.8-.74 1.55-1.54 2.25-2.37.32-.39.62-.8.88-1.22.21-.32.36-.66.44-1.03.15-1.07.23-2.14.25-3.22v-1.65a57.72 57.72 0 00-.76-8.27l3.43-.65z" fill="#FFC3BD"/><path d="M167.48 79.48c1.88 1.52 1.43 6.04 1.43 6.04l-6.33 2.09s.29-5.22.6-7.09c.37-2.23 2.45-2.54 4.3-1.04z" fill="#DCDFE5"/><path d="M83.78 98.35a4.84 4.84 0 00-4.72-3.75h-35.2a4.84 4.84 0 00-4.84 4.84v78.24a4.84 4.84 0 004.84 4.84h111.76a4.84 4.84 0 004.84-4.84v-65.72a4.84 4.84 0 00-4.84-4.84H94.8a11.3 11.3 0 01-11.01-8.77z" fill="#666D80"/><path opacity=".22" d="M71.35 73.99l3.14 10.16a5.1 5.1 0 006.39 3.37l10.15-3.14-19.68-10.4z" fill="#407BFF"/><path d="M71.35 73.99L35.05 85.2a5.1 5.1 0 00-3.37 6.38l20.72 67.1a5.1 5.1 0 006.39 3.36l46.46-14.35a5.09 5.09 0 003.37-6.38l-17.6-56.93-19.67-10.4z" fill="#DCDFE5"/><path opacity=".8" d="M71.35 73.99L35.05 85.2a5.1 5.1 0 00-3.37 6.38l20.72 67.1a5.1 5.1 0 006.39 3.36l46.46-14.35a5.09 5.09 0 003.37-6.38l-17.6-56.93-19.67-10.4z" fill="#fff"/><g opacity=".2" fill="#3955A4"><path d="M90.89 144.76l-30.2 9.33a2.24 2.24 0 01-2.8-1.47 2.23 2.23 0 011.48-2.79l30.2-9.33a2.23 2.23 0 011.32 4.26zM58.38 90.02l-15.97 4.93a2.24 2.24 0 01-2.79-1.47 2.24 2.24 0 011.48-2.8l15.97-4.92a2.23 2.23 0 111.31 4.26zM71.42 95.25l-26.4 8.15a2.24 2.24 0 01-2.62-3.17c.27-.52.75-.91 1.31-1.09L70.11 91a2.24 2.24 0 012.79 1.47 2.24 2.24 0 01-1.48 2.79zM86.16 99.95l-38.53 11.88a2.23 2.23 0 01-1.32-4.26L84.84 95.7a2.24 2.24 0 012.63 3.17c-.28.52-.75.91-1.31 1.1zM88.77 108.4l-22.4 6.92a2.24 2.24 0 01-2.62-3.17c.27-.52.74-.91 1.3-1.09l22.4-6.92a2.24 2.24 0 012.79 1.47 2.24 2.24 0 01-1.47 2.79zM56.1 118.5l-5.86 1.8a2.23 2.23 0 01-1.31-4.26l5.85-1.8a2.24 2.24 0 012.8 1.46 2.24 2.24 0 01-1.48 2.8zM91.38 116.85l-38.53 11.9a2.24 2.24 0 01-2.62-3.17c.27-.52.74-.91 1.3-1.09l38.53-11.9a2.23 2.23 0 011.32 4.26zM79.12 129.9l-23.66 7.3a2.24 2.24 0 01-2.78-1.47 2.24 2.24 0 011.47-2.79l23.66-7.3a2.24 2.24 0 012.78 1.47 2.23 2.23 0 01-1.47 2.78zM93.99 125.3l-6.32 1.95a2.24 2.24 0 01-2.79-1.47 2.24 2.24 0 011.48-2.79l6.31-1.95A2.23 2.23 0 0194 125.3zM96.6 133.76l-38.52 11.88a2.24 2.24 0 01-2.63-3.17c.28-.52.75-.91 1.31-1.09l38.53-11.9a2.24 2.24 0 011.3 4.28z"/></g><path d="M82.46 54.58l-34.23 16.5a5.1 5.1 0 00-2.39 6.8l30.49 63.27a5.1 5.1 0 006.81 2.38l43.8-21.11a5.12 5.12 0 002.39-6.81l-25.88-53.68-21-7.35z" fill="url(#paint0_linear)"/><path d="M72.02 72.36l-15.06 7.26a2.24 2.24 0 01-2.98-1.04 2.24 2.24 0 011.04-2.98l15.06-7.25a2.23 2.23 0 111.94 4.01zM85.68 75.6L60.8 87.59a2.24 2.24 0 01-3.06-2.75c.2-.55.6-1.01 1.14-1.27l24.89-11.99a2.24 2.24 0 012.97 1.04 2.24 2.24 0 01-1.05 2.98zM100.96 78.05L64.63 95.54a2.23 2.23 0 01-1.93-4.02l36.32-17.48a2.24 2.24 0 013.07 2.74c-.2.56-.6 1.02-1.13 1.27zM74 100.86l-5.52 2.66a2.24 2.24 0 01-3.07-2.74c.2-.56.6-1.01 1.13-1.27l5.52-2.66a2.24 2.24 0 012.98 1.04 2.24 2.24 0 01-1.04 2.97zM108.64 93.99l-36.32 17.5a2.24 2.24 0 01-3.07-2.74c.2-.56.6-1.02 1.13-1.27l36.33-17.5a2.23 2.23 0 011.93 4z" fill="#fff"/><path d="M113.11 78.86L75.2 81.2a5.1 5.1 0 00-4.79 5.41l4.33 70.08a5.1 5.1 0 005.41 4.79l48.53-3a5.1 5.1 0 004.78-5.4L129.8 93.6l-16.69-14.74z" fill="#DCDFE5"/><path opacity=".8" d="M113.11 78.86L75.2 81.2a5.1 5.1 0 00-4.79 5.41l4.33 70.08a5.1 5.1 0 005.41 4.79l48.53-3a5.1 5.1 0 004.78-5.4L129.8 93.6l-16.69-14.74z" fill="#fff"/><g opacity=".2" fill="#3955A4"><path d="M115.4 152.24l-31.55 1.95a2.23 2.23 0 01-.27-4.45l31.55-1.95a2.23 2.23 0 011.8 3.7c-.39.44-.94.71-1.53.75zM96.73 91.38L80.04 92.4a2.24 2.24 0 01-2.36-2.09 2.24 2.24 0 012.09-2.36l16.69-1.03a2.23 2.23 0 01.27 4.46zM108.16 99.54l-27.57 1.7a2.23 2.23 0 01-.28-4.45l27.57-1.7a2.23 2.23 0 01.28 4.45zM121.37 107.58l-40.24 2.49a2.24 2.24 0 01-1.81-3.7c.39-.45.94-.72 1.53-.75l40.24-2.49a2.23 2.23 0 01.28 4.45zM121.92 116.41l-23.4 1.44a2.24 2.24 0 01-2.36-2.08 2.23 2.23 0 012.09-2.36l23.4-1.45a2.23 2.23 0 01.27 4.45zM87.8 118.51l-6.13.38a2.23 2.23 0 01-1.8-3.7c.4-.44.94-.7 1.53-.75l6.12-.37a2.24 2.24 0 012.36 2.09 2.24 2.24 0 01-2.09 2.35zM122.47 125.24l-40.25 2.48a2.23 2.23 0 01-1.8-3.7c.39-.44.94-.71 1.53-.75l40.24-2.48a2.23 2.23 0 011.8 3.7c-.39.44-.94.71-1.52.75zM107.48 135.02l-24.72 1.53a2.24 2.24 0 01-2.36-2.09 2.23 2.23 0 012.1-2.36l24.7-1.53a2.24 2.24 0 012.36 2.1 2.22 2.22 0 01-2.08 2.35zM123 134.07l-6.6.4a2.23 2.23 0 01-.27-4.44l6.6-.41a2.23 2.23 0 01.28 4.45zM123.55 142.9l-40.24 2.48a2.24 2.24 0 01-2.36-2.09 2.24 2.24 0 012.08-2.36l40.25-2.48a2.23 2.23 0 01.27 4.45z"/></g><path d="M113.11 78.86l.66 10.61a5.1 5.1 0 005.4 4.79l10.63-.66-16.69-14.74z" fill="#EFF1F6"/><path opacity=".75" d="M100.7 105.34a3.81 3.81 0 00-3.97-3.76H61.5a6.15 6.15 0 00-5.78 4.84L41.8 177.68c-.52 2.67 1.22 4.84 3.9 4.84h111.75a6.17 6.17 0 005.79-4.84l11.47-58.74c.52-2.67-1.23-4.84-3.9-4.84H110c-5.28 0-9.13-3.63-9.3-8.76z" fill="#E6E6E6"/><defs><linearGradient id="paint0_linear" x1="49.51" y1="103.74" x2="126.33" y2="94.76" gradientUnits="userSpaceOnUse"><stop stop-color="#37489A"/><stop offset=".32" stop-color="#4B5BA9"/><stop offset=".51" stop-color="#9177B6"/><stop offset=".83" stop-color="#B6ADD8"/><stop offset=".95" stop-color="#BADAF3"/><stop offset="1" stop-color="#D9ECFA"/></linearGradient></defs></svg>