<svg width="220" height="220" fill="none" xmlns="http://www.w3.org/2000/svg"><path d="M110 188.13c47.12 0 85.31-2.23 85.31-4.98 0-2.75-38.2-4.99-85.31-4.99-47.12 0-85.31 2.24-85.31 4.99s38.2 4.98 85.31 4.98z" fill="#F5F5F5"/><path d="M66.4 47.52c.31-5.32 11.56-4.8 13.77.17 2.2 4.96.4 9.53 6.52 12.52 10.84 5.28 12.02 12.3 7.92 19.2-4.1 6.9-20.1 11.74-28.8.44-8.58-11.15 4.47-13.64-2.28-18.89-5.89-4.6-5.39-12.8 2.88-13.44z" fill="#FEE3CB"/><path d="M61.6 73.13c-.15.18-.22.27-.33.38l-.29.32c-.2.2-.4.4-.6.57a22.46 22.46 0 01-3.83 2.85c-.89.53-1.81 1.02-2.76 1.45-.47.21-.94.44-1.42.62l-.72.28-.36.13c-.21.08-.43.15-.65.2a3.03 3.03 0 01-2.99-1.05 5.05 5.05 0 01-.97-1.93 13.6 13.6 0 01-.44-3.27c-.02-2.04.15-4.07.52-6.07l1.97.16c.06 1.9.23 3.78.48 5.66.12.85.32 1.68.61 2.49.08.24.21.47.39.65.03 0 0-.04-.12-.1a.88.88 0 00-.23-.05l.05-.03.31-.15.63-.3 1.23-.63a30.88 30.88 0 004.56-3c.35-.28.69-.56 1-.88l.47-.44.21-.21.16-.17 3.12 2.52z" fill="#FFC3BD"/><path d="M61.69 66.97c-1.62-.4-5.72 4.92-5.72 4.92l2.5 4.75s6.89-3.9 6.63-6.04c-.27-2.23-1.06-3.05-3.41-3.63z" fill="#DCDFE5"/><path opacity=".2" d="M60.62 68.81l.4 6.22a41.24 41.24 0 01-2.56 1.6l-.52-.99 2.68-6.83z" fill="#273844"/><path d="M48.44 69.08l1.81-4.05-3.86.92s-.67 2.42.51 3.52l1.54-.39z" fill="#FFC3BD"/><path d="M50.03 62.14l-3.32.27-.32 3.55 3.86-.92-.22-2.9zM65.27 177.13l-3.9.16-.69-9.05 3.9-.15.69 9.04zM99.94 143.88l-2.54 2.96-7.69-4.92 2.54-2.97 7.7 4.93z" fill="#FFC3BD"/><path d="M96.55 146.67l2.33-3.72a.3.3 0 01.39-.12l3.2 1.41a.63.63 0 01.27.88c-.84 1.29-1.32 1.87-2.33 3.5-.63 1.01-1.65 3.08-2.52 4.46-.87 1.38-2.29.6-2.05-.05 1.07-2.95.76-4.36.57-5.7-.03-.22.02-.46.14-.66z" fill="#263238"/><path d="M61.24 177.06l4.23-1.18a.31.31 0 01.37.17l1.42 3.2a.63.63 0 01-.44.84c-1.48.39-2.2.5-4.07 1.02-1.15.32-4.49 1.83-6.12 1.96-1.64.13-1.85-1.48-1.18-1.68a9.3 9.3 0 005.2-3.92c.15-.2.36-.35.6-.41z" fill="#273844"/><g opacity=".2" fill="#273844"><path opacity=".2" d="M60.68 168.25l.36 4.66 3.9-.15-.37-4.67-3.89.16zM92.25 138.95l-2.54 2.97 3.97 2.54 2.54-2.97-3.97-2.54z"/></g><path d="M59.65 68.6c-.38 2.2-.74 7.78.88 20.77l15.84.98c.12-6.07.44-10.97 3.73-22.7a2.02 2.02 0 00-1.82-2.56c-1.2-.07-2.72-.12-4.27-.05-2.44.05-4.87.27-7.28.66-2.05.37-4.3.94-5.61 1.29a2.01 2.01 0 00-1.47 1.6z" fill="#DCDFE5"/><path d="M60.53 89.37s-4.93 29.84-5.4 41.75c-.5 12.38 5.07 40.54 5.07 40.54h5.28s-1.93-26.89-.71-39c1.32-13.2 7.36-42.57 7.36-42.57l-11.6-.72z" fill="#C6D0D6"/><path d="M65.93 171.85h-6.2l-.45-1.98 6.94-.24-.29 2.22z" fill="#DCDFE5"/><path opacity=".2" d="M66.9 97.27c-4.37 7.58-2.15 22.04-1.1 27.44A666.3 666.3 0 0170.16 100c-.34-4.08-1.24-6.23-3.26-2.73z" fill="#273844"/><path d="M64.72 89.63s2.2 35.74 4.92 40.69c4.35 7.84 22.76 14.27 22.76 14.27l3.46-4.05s-11.52-9.58-17.6-15.02c-1.45-9.89 3.67-25.49-1.86-35.17l-11.68-.72z" fill="#C6D0D6"/><path d="M76.66 89.43l.32 1.45c.05.11-.09.21-.27.2l-16.28-1c-.15 0-.26-.1-.26-.18l-.06-1.42c0-.1.12-.18.28-.17l16.02 1.01a.3.3 0 01.25.11z" fill="#3955A4"/><path d="M74.4 91.08l.44.03c.08 0 .15-.04.14-.1l-.08-1.84c0-.06-.08-.11-.16-.11l-.44-.03c-.09 0-.16.03-.15.09l.09 1.85c0 .07.07.11.16.11zM61.6 90.3l.44.03c.09 0 .15-.03.15-.09l-.08-1.85c0-.06-.08-.1-.17-.1l-.44-.03c-.08 0-.15.03-.15.08l.09 1.86c.01.05.08.1.16.1zM68 90.7l.44.03c.09 0 .16-.04.15-.1l-.09-1.85c0-.05-.07-.1-.15-.1l-.44-.03c-.09 0-.16.03-.15.09l.08 1.85c0 .05.08.1.16.11z" fill="#fff"/><path d="M96.28 140.08l-4.3 5.03-2.03-.82 4.78-6.13 1.55 1.92z" fill="url(#paint0_linear)"/><path d="M80.08 68.9a79.05 79.05 0 012.05 5.82 74.18 74.18 0 011.62 6l.16.76.08.39.04.19.03.18.03.25a2.47 2.47 0 01-1.13 2.28c-.26.17-.55.29-.85.36-.22.05-.43.08-.65.1a7.7 7.7 0 01-1.92-.16c-.54-.1-1.08-.23-1.61-.4a34.28 34.28 0 01-5.82-2.39l.7-1.85c1.93.44 3.9.91 5.8 1.2.46.08.92.14 1.36.17.37.04.75.03 1.11-.03.11 0 .17-.09-.06.03-.18.11-.32.27-.4.46-.08.16-.12.34-.12.52v.05c0 .02 0 .05 0 0l-.05-.17-.1-.36c-.06-.23-.12-.47-.2-.7-.54-1.89-1.15-3.78-1.8-5.66-.64-1.9-1.31-3.78-2-5.62l3.73-1.43z" fill="#FFC3BD"/><path d="M79.54 65.27c1.55.58 3.12 6.16 3.12 6.16l-6.43 4.02s-2.04-5.38-1.25-7.4c.83-2.09 2.78-3.44 4.56-2.78z" fill="#DCDFE5"/><path d="M95.92 148.68h-.04a.54.54 0 01-.5-.14.3.3 0 01-.12-.3c.06-.48 1.34-1.09 1.48-1.15a.08.08 0 01.05-.02c.02 0 .04 0 .05.02a.09.09 0 01.03.1c-.18.5-.51 1.31-.95 1.49zm.7-1.32c-.5.25-1.15.66-1.18.92a.14.14 0 00.06.12.35.35 0 00.32.1c.24-.06.54-.48.78-1.13l.02-.01z" fill="url(#paint1_linear)"/><path d="M96.67 147.33c-.44.17-1.37.27-1.66 0a.33.33 0 01-.05-.4.48.48 0 01.3-.27c.55-.16 1.5.44 1.55.44a.1.1 0 010 .17l-.14.06zm-1.37-.49a.31.31 0 00-.18.16c-.04.11 0 .16 0 .19.2.18.98.14 1.42 0-.33-.18-.9-.44-1.23-.35h-.01z" fill="url(#paint2_linear)"/><path d="M60.02 178.11c-.32.12-.66.13-.98.02a.53.53 0 01-.29-.38.31.31 0 01.1-.28c.38-.38 2.1-.04 2.29 0 .02 0 .03 0 .05.02l.02.05v.06a6.75 6.75 0 01-1.18.51zm-.88-.59a.33.33 0 00-.16.08.1.1 0 00-.03.11.35.35 0 00.18.26c.28.14.91 0 1.7-.37a5.05 5.05 0 00-1.7-.08z" fill="#273844"/><path d="M61.16 177.65h-.04c-.5-.08-1.62-.64-1.67-1.09 0-.1.03-.25.27-.34a.67.67 0 01.53 0c.59.26.96 1.25.97 1.3a.08.08 0 010 .08l-.02.03a.07.07 0 01-.04.02zm-1.32-1.27h-.05c-.16.06-.16.13-.15.15.03.27.8.74 1.34.88a2.16 2.16 0 00-.8-1.02.48.48 0 00-.34-.01z" fill="#273844"/><path d="M74.01 64.88c-2.44.05-4.87.27-7.28.66-.88.16-1.8.35-2.64.55-.66.7-1.8 4.24-.52 6.63.85-1.42 2.27-2.64 3.21-2.78 1.04.28 2.07 1.85 2.32 3.24 1.7-.31 5.37-4.28 7.48-7.48l.53-.83a43 43 0 00-3.1 0z" fill="#F4F8F9"/><path d="M73.79 57.04c-.6 2.34-1.32 6.6.22 8 0 0-1.45 2.36-5.14 2.79-4.06.47-2.14-2.13-2.14-2.13 2.64-.85 2.7-2.75 2.35-4.5l4.7-4.16z" fill="#FFC3BD"/><path d="M66.73 65.7s-1.63 1.7-.08 4.84c3.26-1.52 6.39-3.32 7.36-5.5l-7.28.66z" fill="#FFC3BD"/><path opacity=".2" d="M71.87 58.73l-2.79 2.47c.1.4.14.82.15 1.24 1-.23 2.67-1.23 2.84-2.27.03-.49-.04-.98-.2-1.44z" fill="#273844"/><path d="M76.88 54.2c-1.38 3.62-1.9 5.19-4.35 6.5-3.7 1.97-7.85-.52-7.57-4.48.24-3.57 2.46-8.89 6.54-9.24a5.28 5.28 0 015.38 7.22z" fill="#FFC3BD"/><path d="M68.64 46.97c1.65-.38 2.2 1.5-.7 2.17-2.89.67-.65-1.85.7-2.17z" fill="#FEE3CB"/><path d="M70.37 45.98c-2.36.88-1.32 3.59 1.36 4.36 2.68.78 1.79 5.32 4.19 6.32 2.4 1 3.67-6.64 1.6-8.8-2.07-2.15-5.56-2.48-7.15-1.88z" fill="#FEE3CB"/><path d="M68.16 53.15a8.42 8.42 0 01-1.67 1.58 1.36 1.36 0 001 .54l.67-2.12z" fill="#ED847E"/><path d="M68.77 56.96l-.44-.1a.1.1 0 01-.06-.12.1.1 0 01.11-.06 2.5 2.5 0 002.27-.35.1.1 0 01.1.03.1.1 0 010 .13 2.59 2.59 0 01-1.98.47z" fill="#263238"/><path d="M76.96 57.5c-.46.6-1.13.98-1.88 1.07-.98.12-1.32-.8-.92-1.65.36-.77 1.32-1.76 2.24-1.47a1.27 1.27 0 01.56 2.05z" fill="#FFC3BD"/><path d="M72.76 53.24a.19.19 0 01-.14-.17c-.05-.86-.99-1.44-1-1.44a.19.19 0 01-.07-.27.19.19 0 01.27-.05c.05.03 1.1.7 1.17 1.74a.18.18 0 01-.1.18.18.18 0 01-.07.01h-.06zM70.73 53.68c-.1.27-.33.44-.5.38-.19-.06-.25-.34-.15-.62.1-.28.33-.44.5-.38.19.06.26.34.15.62zM67.32 52.47c-.1.28-.33.44-.51.38s-.25-.34-.14-.62c.1-.27.33-.44.5-.38.19.07.26.35.15.62z" fill="#263238"/><path d="M67.25 51.92l-.59-.44s.15.62.6.44zM70.66 53.1l-.59-.44s.15.65.6.44zM66.54 50.16a.18.18 0 01-.17-.23.18.18 0 01.08-.11 1.83 1.83 0 011.69-.12.18.18 0 11-.17.33 1.46 1.46 0 00-1.32.1.15.15 0 01-.1.03z" fill="#263238"/><path d="M73.33 80.62l-2.67-3.28-.74 3.9s1.93 1.6 3.43.99l-.02-1.61zM68.3 76.8l-1.28 3.1 2.9 1.34.74-3.9-2.36-.54z" fill="#FFC3BD"/><path opacity=".1" d="M129.36 128.96L74.8 100.55l102.7-9.87-48.14 38.28z" fill="#263238"/><path d="M80.68 161.7l102.7-9.88-5.87-61.14-102.71 9.87 5.88 61.14z" fill="url(#paint3_linear)"/><path d="M116.93 67.05l-42.13 33.5 102.7-9.87-47.74-24.86a11.84 11.84 0 00-12.83 1.23z" fill="url(#paint4_linear)"/><path opacity=".15" d="M116.93 67.05l-42.13 33.5 102.7-9.87-47.74-24.86a11.84 11.84 0 00-12.83 1.23z" fill="#273844"/><path d="M154.72 90.3l13.9 3.7.34 3.47-39.6 31.5-44.87-23.37-.67-6.94 70.9-8.37z" fill="#fff"/><path d="M154.72 90.3l2.63 7.27 11.27-3.56" fill="#E0E0E0"/><path d="M154.72 90.3l1.35 6 12.55-2.3" fill="#F0F0F0"/><path d="M137.57 122.43l45.81 29.4-102.7 9.86 39.37-37.58a14.23 14.23 0 0117.52-1.68z" fill="url(#paint5_linear)"/><path opacity=".15" d="M137.57 122.43l45.81 29.4-102.7 9.86 39.37-37.58a14.23 14.23 0 0117.52-1.68z" fill="#273844"/><defs><linearGradient id="paint0_linear" x1="89.95" y1="141.6" x2="96.27" y2="141.81" gradientUnits="userSpaceOnUse"><stop stop-color="#37489A"/><stop offset=".32" stop-color="#4B5BA9"/><stop offset=".51" stop-color="#9177B6"/><stop offset=".83" stop-color="#B6ADD8"/><stop offset=".95" stop-color="#BADAF3"/><stop offset="1" stop-color="#D9ECFA"/></linearGradient><linearGradient id="paint1_linear" x1="95.25" y1="147.87" x2="96.87" y2="147.94" gradientUnits="userSpaceOnUse"><stop stop-color="#37489A"/><stop offset=".32" stop-color="#4B5BA9"/><stop offset=".51" stop-color="#9177B6"/><stop offset=".83" stop-color="#B6ADD8"/><stop offset=".95" stop-color="#BADAF3"/><stop offset="1" stop-color="#D9ECFA"/></linearGradient><linearGradient id="paint2_linear" x1="94.91" y1="147.06" x2="96.84" y2="147.23" gradientUnits="userSpaceOnUse"><stop stop-color="#37489A"/><stop offset=".32" stop-color="#4B5BA9"/><stop offset=".51" stop-color="#9177B6"/><stop offset=".83" stop-color="#B6ADD8"/><stop offset=".95" stop-color="#BADAF3"/><stop offset="1" stop-color="#D9ECFA"/></linearGradient><linearGradient id="paint3_linear" x1="78" y1="126" x2="183.12" y2="124.17" gradientUnits="userSpaceOnUse"><stop stop-color="#37489A"/><stop offset=".32" stop-color="#4B5BA9"/><stop offset=".51" stop-color="#9177B6"/><stop offset=".83" stop-color="#B6ADD8"/><stop offset=".95" stop-color="#BADAF3"/><stop offset="1" stop-color="#D9ECFA"/></linearGradient><linearGradient id="paint4_linear" x1="74.8" y1="82.33" x2="176.33" y2="93.25" gradientUnits="userSpaceOnUse"><stop stop-color="#37489A"/><stop offset=".32" stop-color="#4B5BA9"/><stop offset=".51" stop-color="#9177B6"/><stop offset=".83" stop-color="#B6ADD8"/><stop offset=".95" stop-color="#BADAF3"/><stop offset="1" stop-color="#D9ECFA"/></linearGradient><linearGradient id="paint5_linear" x1="80.68" y1="140.73" x2="182.5" y2="150.23" gradientUnits="userSpaceOnUse"><stop stop-color="#37489A"/><stop offset=".32" stop-color="#4B5BA9"/><stop offset=".51" stop-color="#9177B6"/><stop offset=".83" stop-color="#B6ADD8"/><stop offset=".95" stop-color="#BADAF3"/><stop offset="1" stop-color="#D9ECFA"/></linearGradient></defs></svg>