<svg width="120" height="33" viewBox="0 0 120 33" fill="none" xmlns="http://www.w3.org/2000/svg">
<g clip-path="url(#clip0)">
<path d="M21.0911 18.9448C21.0903 18.9446 10.4639 16.4723 10.4639 16.4723C7.29662 15.7354 5.30973 12.498 6.02629 9.2414C6.74326 5.9848 9.89206 3.94247 13.0594 4.67917C16.2269 5.41615 18.2136 8.65344 17.497 11.9098C17.1379 13.5403 16.1692 14.8651 14.8938 15.6905C14.8936 15.6905 14.8905 15.6932 14.8893 15.6938C14.8518 15.7215 14.8276 15.7666 14.8276 15.8173C14.8276 15.8883 14.8752 15.948 14.9397 15.9639C14.9399 15.9641 19.6669 17.0631 19.6677 17.0631C19.7802 17.0894 19.897 17.0447 19.9661 16.9509C19.9665 16.95 19.9663 16.9506 19.9663 16.9506C21.2686 15.179 22.0508 12.9684 22.0508 10.5774C22.0508 4.94658 17.7719 0.344921 12.3748 0.0180893C12.3267 0.0153503 12.0342 0.00360489 11.9354 0.0021553C9.54578 -0.0364113 7.12293 0.668053 5.01603 2.18508C-0.304693 6.01537 -1.59743 13.5547 2.12771 19.0248L11.582 32.9068C11.6224 32.9633 11.6874 33 11.7603 33C11.8339 33 11.8991 32.9627 11.9393 32.9057C11.9393 32.9057 21.2231 19.2936 21.224 19.2924C21.2476 19.2564 21.2617 19.2126 21.2617 19.1656C21.2617 19.0579 21.1889 18.9678 21.0911 18.9448Z" fill="#FABC26"/>
<path d="M30.1874 6.5008C30.3012 6.5008 30.3766 6.53953 30.4143 6.61726L33.5667 12.1482H33.7175L36.3982 6.69461C36.4546 6.55863 36.5682 6.5008 36.7191 6.5008H38.6445C38.8145 6.5008 38.9086 6.67551 38.833 6.81112L33.2832 16.9034C33.2268 17.0197 33.1137 17.0781 32.9624 17.0781H31.0748C30.8671 17.0781 30.8484 16.9421 30.924 16.7869L32.415 14.1666L27.9602 6.75308C27.8844 6.61726 27.9413 6.5008 28.0734 6.5008H30.1874Z" fill="#2C2E2C"/>
<path d="M42.1478 6.5008C42.3178 6.5008 42.4121 6.59757 42.4121 6.77234V10.923L46.6598 6.65583C46.7729 6.55863 46.9427 6.5008 47.1504 6.5008H49.4534C49.6233 6.5008 49.6802 6.65583 49.5477 6.79181L45.0359 11.1393L49.831 16.7869C49.9631 16.9225 49.8879 17.0781 49.7179 17.0781H47.4526C47.245 17.0781 47.0941 17.0197 46.9804 16.8837L43.3882 12.5272L42.4121 13.4605V16.8062C42.4121 16.9809 42.3178 17.0781 42.1478 17.0781H40.4868C40.3168 17.0781 40.2227 16.9809 40.2227 16.8062V6.77234C40.2227 6.59757 40.3168 6.5008 40.4868 6.5008H42.1478Z" fill="#2C2E2C"/>
<path d="M56.0901 12.1291C57.2415 12.1291 57.902 11.3917 57.902 10.3632C57.902 9.35381 57.2415 8.63593 56.0901 8.63593H53.3525V12.1291H56.0901ZM56.0901 6.5008C58.3737 6.5008 60.0913 8.18921 60.0913 10.3632C60.0913 12.6144 58.3737 14.2641 56.0901 14.2641H53.3525V16.8064C53.3525 16.9809 53.2581 17.0781 53.0885 17.0781H51.427C51.2572 17.0781 51.1626 16.9809 51.1626 16.8064V6.77255C51.1626 6.59779 51.2572 6.5008 51.427 6.5008H56.0901Z" fill="#2C2E2C"/>
<path d="M70.4099 6.5008C70.5795 6.5008 70.6744 6.59757 70.6744 6.77234V16.8062C70.6744 16.9809 70.5795 17.0781 70.4099 17.0781H68.7482C68.5791 17.0781 68.4842 16.9809 68.4842 16.8062V8.61603H63.9158V16.8062C63.9158 16.9809 63.8214 17.0781 63.6518 17.0781H61.9906C61.8205 17.0781 61.7261 16.9809 61.7261 16.8062V6.77234C61.7261 6.59757 61.8205 6.5008 61.9906 6.5008H70.4099Z" fill="#2C2E2C"/>
<path d="M74.8321 11.7961C74.8321 13.7176 76.1531 15.1145 78.0408 15.1145C79.9101 15.1145 81.2317 13.7176 81.2317 11.7961C81.2317 9.83594 79.9101 8.45806 78.0408 8.45806C76.1531 8.45806 74.8321 9.83594 74.8321 11.7961ZM78.0408 6.34235C81.0047 6.34235 83.4402 8.69081 83.4402 11.7961C83.4402 14.9207 81.0047 17.2305 78.0408 17.2305C75.0585 17.2305 72.6235 14.9207 72.6235 11.7961C72.6235 8.69081 75.0585 6.34235 78.0408 6.34235Z" fill="#2C2E2C"/>
<path d="M90.7698 14.9627V6.77212C90.7698 6.59779 90.8637 6.5008 91.0343 6.5008H92.6575C92.8276 6.5008 92.922 6.59779 92.922 6.77212V14.9627H96.15V6.77212C96.15 6.59779 96.2439 6.5008 96.414 6.5008H98.0377C98.2077 6.5008 98.3017 6.59779 98.3017 6.77212V16.8062C98.3017 16.9809 98.2077 17.0781 98.0377 17.0781H85.6542C85.5222 17.0781 85.3896 16.9809 85.3896 16.8062V6.77212C85.3896 6.59779 85.4836 6.5008 85.6542 6.5008H87.2773C87.4474 6.5008 87.5418 6.59779 87.5418 6.77212V14.9627H90.7698Z" fill="#2C2E2C"/>
<path d="M108.791 6.5008C108.96 6.5008 109.055 6.59757 109.055 6.77234V8.36376C109.055 8.53852 108.96 8.63534 108.791 8.63534H105.506V16.8062C105.506 16.9809 105.411 17.0781 105.242 17.0781H103.58C103.411 17.0781 103.316 16.9809 103.316 16.8062V8.63534H100.032C99.8621 8.63534 99.7671 8.53852 99.7671 8.36376V6.77234C99.7671 6.59757 99.8621 6.5008 100.032 6.5008H108.791Z" fill="#2C2E2C"/>
<path d="M112.527 12.9444H116.113L114.452 8.5972H114.245L112.527 12.9444ZM116.869 14.9822H111.734L111.017 16.8451C110.96 17.0006 110.847 17.0781 110.696 17.0781H108.827C108.639 17.0781 108.582 16.9809 108.639 16.8064L113.093 6.65626C113.131 6.55906 113.207 6.5008 113.339 6.5008H115.491C115.623 6.5008 115.698 6.55906 115.736 6.65626L119.983 16.7674C120.04 16.9231 119.946 17.0781 119.776 17.0781H117.983C117.794 17.0781 117.661 16.9809 117.586 16.8064L116.869 14.9822Z" fill="#2C2E2C"/>
<path d="M29.4136 26.1484V21.6189H32.3121V22.1407H29.9958V26.1484H29.4136Z" fill="#617171"/>
<path d="M33.7393 23.8747C33.7393 25.0072 34.3399 25.7387 35.2751 25.7387C36.198 25.7387 36.7986 25.0005 36.7986 23.8747C36.7986 22.7551 36.198 22.0299 35.2627 22.0299C34.2223 22.0299 33.7393 22.9076 33.7393 23.8747ZM37.3811 23.8428C37.3811 25.1727 36.6687 26.2539 35.269 26.2539C33.8571 26.2539 33.1572 25.147 33.1572 23.83C33.1572 22.4181 33.9808 21.5082 35.2627 21.5082C36.6314 21.5082 37.3811 22.494 37.3811 23.8428Z" fill="#617171"/>
<path d="M41.9389 26.1427H41.3568V22.135H39.728L39.6414 24.6858C39.6104 25.5958 39.2882 26.2383 38.6195 26.2383C38.4954 26.2383 38.3097 26.1937 38.1982 26.149V25.6401C38.279 25.6912 38.4461 25.704 38.5139 25.704C38.8298 25.704 39.0593 25.5257 39.0901 24.374L39.1706 21.6132H41.9389V26.1427Z" fill="#617171"/>
<path d="M43.8945 23.8747C43.8945 25.0072 44.4951 25.7387 45.4304 25.7387C46.353 25.7387 46.9538 25.0005 46.9538 23.8747C46.9538 22.7551 46.353 22.0299 45.418 22.0299C44.3775 22.0299 43.8945 22.9076 43.8945 23.8747ZM47.5359 23.8428C47.5359 25.1727 46.824 26.2539 45.4243 26.2539C44.0121 26.2539 43.312 25.147 43.312 23.83C43.312 22.4181 44.136 21.5082 45.418 21.5082C46.7867 21.5082 47.5359 22.494 47.5359 23.8428Z" fill="#617171"/>
<path d="M49.4759 25.6458H50.6404C51.2286 25.6458 51.8046 25.6078 51.8046 24.8126C51.8046 24.0237 51.1295 24.03 50.5414 24.03H49.4759V25.6458ZM49.4759 23.5592H50.5226C51.0181 23.5592 51.6128 23.521 51.6128 22.8405C51.6128 22.1595 51.0984 22.1279 50.5785 22.1279H49.4759V23.5592ZM50.789 21.6189C51.5198 21.6189 52.1945 21.9181 52.1945 22.7512C52.1945 23.1965 51.9409 23.5784 51.5445 23.7245C52.0895 23.8521 52.3928 24.2716 52.3928 24.8699C52.3928 25.9131 51.563 26.1484 50.7209 26.1484H48.9062V21.6189H50.789Z" fill="#617171"/>
<path d="M57.2772 26.1484H56.695V24.03H54.3664V26.1484H53.7842V21.6189H54.3664V23.5081H56.695V21.6189H57.2772V26.1484Z" fill="#617171"/>
<path d="M60.5284 22.1913L59.7667 24.2846H61.2782L60.5284 22.1913ZM62.5909 26.1484H61.9408L61.4514 24.7617H59.5997L59.0983 26.1484H58.4785L60.2128 21.6189H60.8691L62.5909 26.1484Z" fill="#617171"/>
<path d="M69.7694 26.1484H69.1871V22.1407H66.8586V26.1484H66.2764V21.6189H69.7694V26.1484Z" fill="#617171"/>
<path d="M71.7307 23.8747C71.7307 25.0072 72.3312 25.7387 73.2662 25.7387C74.1891 25.7387 74.7896 25.0005 74.7896 23.8747C74.7896 22.7551 74.1891 22.0299 73.2542 22.0299C72.2133 22.0299 71.7307 22.9076 71.7307 23.8747ZM75.3719 23.8428C75.3719 25.1727 74.6597 26.2539 73.2604 26.2539C71.8481 26.2539 71.1484 25.147 71.1484 23.83C71.1484 22.4181 71.9717 21.5082 73.2542 21.5082C74.6227 21.5082 75.3719 22.494 75.3719 23.8428Z" fill="#617171"/>
<path d="M76.7422 21.6189H77.3245V25.6269H79.2815V21.6189H79.8632V25.6269H81.8203V21.6189H82.4025V26.1484H76.7422V21.6189Z" fill="#617171"/>
<path d="M87.1847 22.1407H85.7045V26.1484H85.1223V22.1407H83.6421V21.6189H87.1847V22.1407Z" fill="#617171"/>
<path d="M89.4391 22.1913L88.6779 24.2846H90.1888L89.4391 22.1913ZM91.5021 26.1484H90.8514L90.362 24.7617H88.5104L88.009 26.1484H87.3892L89.1234 21.6189H89.7798L91.5021 26.1484Z" fill="#617171"/>
<path d="M96.9088 23.4385L98.8408 26.1484H98.0978L96.4997 23.8454L95.7693 24.5583V26.1484H95.187V21.6189H95.7693V23.8647L98.0049 21.6189H98.7667L96.9088 23.4385Z" fill="#617171"/>
<path d="M100.652 23.7882H101.773C102.337 23.7882 102.77 23.6292 102.77 22.9614C102.77 22.236 102.268 22.1342 101.692 22.1342H100.652V23.7882ZM101.884 21.6189C102.727 21.6189 103.352 21.9814 103.352 22.9231C103.352 23.9474 102.708 24.2909 101.847 24.2909H100.652V26.1484H100.07V21.6189H101.884Z" fill="#617171"/>
<path d="M105.929 22.1913L105.167 24.2846H106.678L105.929 22.1913ZM107.991 26.1484H107.341L106.852 24.7617H105L104.498 26.1484H103.879L105.613 21.6189H106.269L107.991 26.1484Z" fill="#617171"/>
<path d="M110.36 21.2308H109.802V20.5884H110.36V21.2308ZM109.784 26.1484H109.202V21.6189H109.784V26.1484ZM109.189 21.2308H108.632V20.5884H109.189V21.2308Z" fill="#617171"/>
<path d="M114.888 26.1484H114.306V24.03H111.978V26.1484H111.396V21.6189H111.978V23.5081H114.306V21.6189H114.888V26.1484Z" fill="#617171"/>
<path d="M116.491 21.6189H117.073V25.4551H117.085L119.247 21.6189H119.983V26.1484H119.402V22.2995H119.389L117.221 26.1484H116.491V21.6189Z" fill="#617171"/>
</g>
<defs>
<clipPath id="clip0">
<rect width="120" height="33" fill="white"/>
</clipPath>
</defs>
</svg>
