<svg width="80" height="80" viewBox="0 0 80 80" fill="none" xmlns="http://www.w3.org/2000/svg">
<g clip-path="url(#clip0)">
<path d="M26.1016 65.3297V57.9297H32.2016V65.2297L29.7016 63.0297L29.2016 62.6297L28.7016 63.0297L26.1016 65.3297Z" stroke="#4C4C4C" stroke-width="1.5"/>
<path d="M47.8008 65.3273V58.0273H53.9008V65.4273L51.3008 63.1273L50.8008 62.7273L50.3008 63.1273L47.8008 65.3273Z" stroke="#4C4C4C" stroke-width="1.5"/>
<path d="M36.8984 45.1266V37.7266H43.1984V45.1266L40.5984 42.8266L39.9984 42.4266L39.4984 42.8266L36.8984 45.1266Z" stroke="#FF671F" stroke-width="1.5"/>
<path fill-rule="evenodd" clip-rule="evenodd" d="M62.6 58.0273C62.6 57.4273 62.1 57.0273 61.6 57.0273H18.5C17.9 57.0273 17.5 57.4273 17.5 58.0273V78.3273C17.5 78.9273 17.9 79.3273 18.5 79.3273H61.6C62.2 79.3273 62.6 78.9273 62.6 78.3273V58.0273ZM39 59.2273V77.0273V77.3273H38.7H19.6H19.3V77.0273V59.2273V58.9273H19.6H38.7H39V59.2273ZM60.6 59.2273V77.0273V77.3273H60.3H41.3H41V77.0273V59.2273V58.9273H41.3H60.4H60.7V59.2273H60.6Z" fill="#4C4C4C"/>
<path fill-rule="evenodd" clip-rule="evenodd" d="M49.9008 57.0266H51.9008V37.7266C51.9008 37.1266 51.5008 36.7266 50.9008 36.7266H29.3008C28.7008 36.7266 28.3008 37.1266 28.3008 37.7266V56.9266H30.3008V38.9266V38.6266H30.6008H49.7008H50.0008V38.9266V57.0266H49.9008Z" fill="#FF671F"/>
<path d="M79.8992 20.7273C79.8992 20.4273 79.6992 19.9273 79.2992 19.7273L40.5992 -0.272656C40.2992 -0.372656 39.8992 -0.372656 39.5992 -0.272656L0.899219 19.7273C0.499219 19.9273 0.199219 20.4273 0.199219 20.7273V78.2273C0.199219 78.9273 0.599219 79.3273 1.29922 79.3273H11.2992C11.9992 79.3273 12.3992 78.9273 12.3992 78.2273V31.9273H67.6992V78.3273C67.6992 79.0273 68.0992 79.4273 68.7992 79.4273H78.7992C79.4992 79.4273 79.8992 79.0273 79.8992 78.3273V20.7273V20.7273ZM39.9992 2.02734L74.0992 19.6273H5.89922L39.9992 2.02734ZM77.5992 77.1273H69.7992V30.7273C69.7992 30.0273 69.3992 29.6273 68.6992 29.6273H11.2992C10.5992 29.6273 10.1992 30.0273 10.1992 30.7273V77.1273H2.39922V21.9273H77.6992V77.1273H77.5992Z" fill="#4C4C4C"/>
</g>
<defs>
<clipPath id="clip0">
<rect width="80" height="80" fill="white"/>
</clipPath>
</defs>
</svg>
